<?xml version="1.0" encoding="utf-8"?>
<!-- Generator: Adobe Illustrator 16.0.0, SVG Export Plug-In . SVG Version: 6.00 Build 0)  -->
<!DOCTYPE svg PUBLIC "-//W3C//DTD SVG 1.1//EN" "http://www.w3.org/Graphics/SVG/1.1/DTD/svg11.dtd">
<svg version="1.1" id="Layer_1" xmlns="http://www.w3.org/2000/svg" xmlns:xlink="http://www.w3.org/1999/xlink" x="0px" y="0px"
	 width="1440px" height="900px" viewBox="0 0 1440 900" enable-background="new 0 0 1440 900" xml:space="preserve">
<rect x="426" y="419.231" fill="none" width="675.843" height="468.769"/>
<text transform="matrix(1 0 0 1 426 431.3271)"><tspan x="0" y="0" font-family="'Georgia'" font-size="16">Lorem ipsum dolor sit amet, consectetur adipisicing elit, sed do eiusmod tempor incididunt ut </tspan><tspan x="0" y="19.2" font-family="'Georgia'" font-size="16">labore et dolore magna aliqua. Ut enim ad minim veniam, quis nostrud exercitation ullamco </tspan><tspan x="0" y="38.4" font-family="'Georgia'" font-size="16">laboris nisi ut aliquip ex ea commodo consequat. Duis aute irure dolor in reprehenderit in vo</tspan><tspan x="652.602" y="38.4" font-family="'Georgia'" font-size="16">-</tspan><tspan x="0" y="57.601" font-family="'Georgia'" font-size="16">luptate velit esse cillum dolore eu fugiat nulla pariatur. Excepteur sint occaecat cupidatat non </tspan><tspan x="0" y="76.8" font-family="'Georgia'" font-size="16">proident, sunt in culpa qui officia deserunt mollit anim id est laborum.</tspan><tspan x="0" y="115.2" font-family="'Georgia'" font-size="16">Sed ut perspiciatis unde omnis iste natus error sit voluptatem accusantium doloremque laudan</tspan><tspan x="668.766" y="115.2" font-family="'Georgia'" font-size="16">-</tspan><tspan x="0" y="134.4" font-family="'Georgia'" font-size="16">tium, totam rem aperiam, eaque ipsa quae ab illo inventore veritatis et quasi architecto beatae </tspan><tspan x="0" y="153.601" font-family="'Georgia'" font-size="16">vitae dicta sunt explicabo. Nemo enim ipsam voluptatem quia voluptas sit aspernatur aut odit </tspan><tspan x="0" y="172.8" font-family="'Georgia'" font-size="16">aut fugit, sed quia consequuntur magni dolores eos qui ratione voluptatem sequi nesciunt. </tspan><tspan x="0" y="192" font-family="'Georgia'" font-size="16">Neque porro quisquam est, qui dolorem ipsum quia dolor sit amet, consectetur, adipisci velit, </tspan><tspan x="0" y="211.2" font-family="'Georgia'" font-size="16">sed quia non numquam eius modi tempora incidunt ut labore et dolore magnam aliquam </tspan><tspan x="0" y="230.4" font-family="'Georgia'" font-size="16">quaerat voluptatem. Ut enim ad minima veniam, quis nostrum exercitationem ullam corporis </tspan><tspan x="0" y="249.601" font-family="'Georgia'" font-size="16">suscipit laboriosam, nisi ut aliquid ex ea commodi consequatur? Quis autem vel eum iure repre</tspan><tspan x="669.523" y="249.601" font-family="'Georgia'" font-size="16">-</tspan><tspan x="0" y="268.8" font-family="'Georgia'" font-size="16">henderit qui in ea voluptate velit esse quam nihil molestiae consequatur, vel illum qui dolorem </tspan><tspan x="0" y="288" font-family="'Georgia'" font-size="16">eum fugiat quo voluptas nulla pariatur?</tspan><tspan x="0" y="326.4" font-family="'Georgia'" font-size="16">At vero eos et accusamus et iusto odio dignissimos ducimus qui blanditiis praesentium vo</tspan><tspan x="630.266" y="326.4" font-family="'Georgia'" font-size="16">-</tspan><tspan x="0" y="345.601" font-family="'Georgia'" font-size="16">luptatum deleniti atque corrupti quos dolores et quas molestias excepturi sint occaecati cupidi</tspan><tspan x="662.859" y="345.601" font-family="'Georgia'" font-size="16">-</tspan><tspan x="0" y="364.8" font-family="'Georgia'" font-size="16">tate non provident, similique sunt in culpa qui officia deserunt mollitia animi, id est laborum et </tspan><tspan x="0" y="384" font-family="'Georgia'" font-size="16">dolorum fuga. Et harum quidem rerum facilis est et expedita distinctio. Nam libero tempore, </tspan><tspan x="0" y="403.2" font-family="'Georgia'" font-size="16">cum soluta nobis est eligendi optio cumque nihil impedit quo minus id quod maxime placeat </tspan><tspan x="0" y="422.4" font-family="'Georgia'" font-size="16">facere possimus, omnis voluptas assumenda est, omnis dolor repellendus. Temporibus autem </tspan><tspan x="0" y="441.601" font-family="'Georgia'" font-size="16">quibusdam et aut officiis debitis aut rerum necessitatibus saepe eveniet ut et voluptates repu</tspan><tspan x="651.227" y="441.601" font-family="'Georgia'" font-size="16">-</tspan></text>
<rect x="1145" y="419.231" fill="none" width="256" height="456.769"/>
<text transform="matrix(1 0 0 1 1145 430.4316)"><tspan x="0" y="0" font-family="'Intro'" font-size="16">Lorem ipsum dolor</tspan><tspan x="0" y="38.399" font-family="'Georgia'" font-size="16"> sit amet,consectetur adipisicing </tspan><tspan x="0" y="57.6" font-family="'Georgia'" font-size="16">elit, sed do eiusmod tempor incidi</tspan><tspan x="0" y="96" font-family="'Georgia'" font-size="16">dunt ut labore et dolore magna </tspan><tspan x="0" y="115.2" font-family="'Georgia'" font-size="16">aliqua. Ut enim ad minim veniam, </tspan><tspan x="0" y="134.399" font-family="'Georgia'" font-size="16">quis nostrud exercitation ullamco </tspan><tspan x="0" y="192" font-family="'Intro'" font-size="16">laboris nisi ut aliquip</tspan><tspan x="0" y="211.2" font-family="'Georgia'" font-size="16">ex ea commodo consequat. Duis </tspan><tspan x="0" y="230.399" font-family="'Georgia'" font-size="16">aute irure dolor in reprehenderit in </tspan><tspan x="0" y="249.6" font-family="'Georgia'" font-size="16">voluptate velit esse cillum dolore eu </tspan><tspan x="0" y="268.8" font-family="'Georgia'" font-size="16">fugiat nulla </tspan><tspan x="0" y="326.399" font-family="'Georgia'" font-size="16">pariatur. Excepteur sint occaecat </tspan><tspan x="0" y="345.6" font-family="'Georgia'" font-size="16">cupidatat non proident, sunt in </tspan><tspan x="0" y="364.8" font-family="'Georgia'" font-size="16">culpa qui officia deserunt mollit </tspan><tspan x="0" y="384" font-family="'Georgia'" font-size="16">anim id est laborum.</tspan></text>
<rect x="427" y="404" fill="#990000" width="678" height="5"/>
<rect x="40" y="112" fill="#990000" width="345" height="12"/>
<g id="awnxpf.tif_4_">
	<g>
		<path fill-rule="evenodd" clip-rule="evenodd" d="M365.49,206.125c-0.501-0.191-1-0.384-1.502-0.573
			c-1.734-0.654-2.563-1.679-2.983-3.782c0.329-0.044,0.649-0.104,0.971-0.123c0.345-0.021,0.692-0.005,0.996-0.005
			c1.582,2.54,4.158,2.948,6.689,0.993c0-0.568,0-1.241,0-1.839c-0.876-1.147-2.093-1.177-3.263-1.365
			c-0.959-0.154-1.942-0.278-2.851-0.598c-3.111-1.093-2.768-4.874-0.955-6.301c1.906-1.501,5.752-1.59,7.694-0.108
			c0.886,0.676,1.296,1.594,1.472,2.897c-0.697,0.049-1.338,0.094-1.895,0.132c-1.949-2.681-4.726-2.75-6.363-0.265
			c-0.056,1.273,0.696,1.874,1.848,2.108c0.75,0.152,1.514,0.245,2.265,0.396c0.75,0.15,1.517,0.271,2.23,0.53
			c1.354,0.489,2.216,1.45,2.33,2.934c0.12,1.568-0.316,2.948-1.753,3.761c-0.887,0.502-1.882,0.812-2.828,1.207
			C366.893,206.125,366.191,206.125,365.49,206.125z"/>
		<path fill-rule="evenodd" clip-rule="evenodd" d="M378.521,206.125c-0.501-0.191-1.001-0.384-1.502-0.573
			c-1.734-0.654-2.563-1.679-2.984-3.782c0.329-0.044,0.65-0.104,0.972-0.123c0.345-0.021,0.692-0.005,0.996-0.005
			c1.582,2.54,4.157,2.948,6.617,1.049c0.061-0.276,0.185-0.611,0.193-0.951c0.01-0.34-0.094-0.684-0.141-0.967
			c-0.857-1.124-2.074-1.153-3.243-1.342c-0.96-0.154-1.942-0.278-2.852-0.598c-3.111-1.093-2.767-4.874-0.955-6.301
			c1.907-1.501,5.752-1.59,7.694-0.108c0.887,0.676,1.296,1.594,1.473,2.897c-0.697,0.049-1.338,0.094-1.896,0.132
			c-1.95-2.681-4.726-2.75-6.362-0.265c-0.057,1.273,0.695,1.874,1.846,2.108c0.752,0.152,1.516,0.245,2.267,0.396
			c0.75,0.15,1.517,0.271,2.23,0.53c1.354,0.489,2.216,1.45,2.329,2.934c0.121,1.568-0.316,2.948-1.752,3.761
			c-0.887,0.502-1.882,0.812-2.83,1.207C379.923,206.125,379.222,206.125,378.521,206.125z"/>
		<path fill-rule="evenodd" clip-rule="evenodd" d="M68.868,167.273c-0.838,0-1.673,0-2.688,0c-1.204-1.883-2.436-3.809-3.789-5.922
			c-1.291,1.993-2.509,3.876-3.773,5.828c-0.74,0-1.488,0-2.562,0c1.474-2.688,3.375-4.885,4.862-7.416
			c-1.437-2.084-2.853-4.14-4.48-6.5c0.983-0.082,1.691-0.143,2.559-0.216c1.083,1.695,2.163,3.388,3.358,5.259
			c1.116-1.735,2.18-3.39,3.29-5.115c0.731,0,1.479,0,2.363,0c-0.304,1.432-1.327,2.325-2.02,3.397
			c-0.678,1.053-1.404,2.074-2.241,3.303c1.697,2.308,3.408,4.635,5.121,6.961C68.868,166.993,68.868,167.133,68.868,167.273z"/>
		<path fill-rule="evenodd" clip-rule="evenodd" d="M160.579,133.356c0.968,0,1.651,0,2.541,0c0.968,3.098,1.935,6.189,3.029,9.691
			c1.219-3.386,2.287-6.357,3.369-9.364c0.326-0.036,0.593-0.065,1.027-0.113c1.08,2.998,2.161,5.998,3.331,9.248
			c0.858-1.603,1.045-3.229,1.529-4.75c0.485-1.521,0.996-3.034,1.542-4.695c0.764-0.035,1.502-0.068,2.52-0.113
			c-1.474,4.874-3.139,9.479-4.756,14.159c-0.399,0.021-0.73,0.038-1.206,0.062c-1.126-2.923-2.241-5.817-3.454-8.966
			c-1.191,3.121-2.28,5.976-3.385,8.869c-0.387,0.043-0.723,0.082-1.282,0.146C163.685,142.92,162.25,138.221,160.579,133.356z"/>
		<path fill-rule="evenodd" clip-rule="evenodd" d="M341.556,138.49c-1.209,3.181-2.271,5.977-3.374,8.877
			c-0.381,0.038-0.775,0.078-1.357,0.139c-1.57-4.688-3.134-9.353-4.739-14.146c0.872,0,1.555,0,2.385,0
			c1.369,2.923,1.928,6.161,3.189,9.68c0.938-2.64,1.726-4.866,2.52-7.089c0.234-0.656,0.441-1.329,0.758-1.944
			c0.122-0.237,0.516-0.335,1.023-0.64c1.16,3.197,2.261,6.236,3.496,9.644c1.047-3.409,1.995-6.503,2.957-9.636
			c0.89,0,1.635,0,2.598,0c-1.622,4.772-3.206,9.43-4.791,14.098c-0.498-0.023-0.836-0.039-1.25-0.059
			C343.867,144.532,342.775,141.68,341.556,138.49z"/>
		<path fill-rule="evenodd" clip-rule="evenodd" d="M274.336,182.807c-1.393-1.742-2.606-3.262-4.069-5.093
			c-0.221,1.665-0.104,3.001-0.125,4.325c-0.022,1.32-0.006,2.642-0.006,4.107c-0.829,0-1.542,0-2.306,0c0-4.714,0-9.351,0-14.163
			c1.765,0.734,2.357,2.336,3.388,3.488c1.06,1.185,1.991,2.484,3.136,3.932c1.099-1.395,2.041-2.667,3.067-3.871
			c1.01-1.183,1.721-2.656,3.141-3.568c0.536,1.521,0.69,9.669,0.306,14.192c-0.63,0.053-1.293,0.108-2.038,0.172
			c-0.448-1.429-0.183-2.82-0.229-4.186c-0.047-1.367-0.01-2.736-0.01-4.592C276.997,179.52,275.71,181.109,274.336,182.807z"/>
		<path fill-rule="evenodd" clip-rule="evenodd" d="M193.644,133.337c1.919,0,3.871-0.14,5.797,0.03
			c3.324,0.293,4.39,1.814,3.917,5.36c-0.332,0.41-0.726,0.896-1.144,1.413c1.495,0.809,2.232,2.06,2.01,3.779
			c-0.26,2.006-1.687,3.381-3.833,3.484c-2.225,0.107-4.458,0.024-6.666,0.024C193.343,145.814,193.285,135.652,193.644,133.337z
			 M201.708,142.128c-1.832-1.489-3.794-0.766-5.714-0.83c0,1.42,0,2.697,0,4.113c2.012-0.306,4.055,0.649,5.714-1.015
			C201.708,143.604,201.708,142.865,201.708,142.128z M200.602,138.902c0.743-0.785,0.966-1.59,0.44-2.51
			c-0.47-0.819-1.246-1.053-2.119-1.064c-0.956-0.012-1.912-0.002-2.972-0.002c0,1.41,0,2.621,0,3.944
			C197.593,139.415,199.155,139.646,200.602,138.902z"/>
		<path fill-rule="evenodd" clip-rule="evenodd" d="M232.068,186.204c0-4.703,0-9.284,0-13.963c2.126,0,4.2-0.062,6.269,0.02
			c1.645,0.064,2.971,0.786,3.578,2.433c0.524,1.425,0.168,2.713-1.012,4.101c0.552,0.698,1.254,1.303,1.592,2.067
			c1.061,2.396-0.546,5.065-3.271,5.355c-1.729,0.185-3.489,0.071-5.235,0.073C233.376,186.291,232.765,186.236,232.068,186.204z
			 M240.251,183.223c0-0.813,0-1.552,0-2.379c-1.876-1.244-3.803-0.741-5.756-0.678c-0.101,1.424-0.283,2.713,0.172,4.107
			C236.58,183.905,238.652,184.941,240.251,183.223z M239.069,178.019c1.238-2.402,0.614-3.691-1.495-3.838
			c-1.012-0.07-2.033-0.013-3.042-0.013c0,1.479,0,2.691,0,4.121C236.17,178.191,237.656,178.103,239.069,178.019z"/>
		<path fill-rule="evenodd" clip-rule="evenodd" d="M326.531,205.703c0-4.878,0-9.411,0-13.943c2.15,0,4.237-0.155,6.293,0.033
			c3.855,0.354,6.006,4.024,5.633,7.547c-0.419,3.958-3.007,6.266-7.009,6.357C329.854,205.733,328.259,205.703,326.531,205.703z
			 M328.983,203.53c2.496,0.118,4.932,0.366,6.409-2.104c1.129-1.89,1.064-3.911-0.124-5.753c-1.504-2.331-3.89-1.997-6.285-1.954
			C328.983,197.048,328.983,200.222,328.983,203.53z"/>
		<path fill-rule="evenodd" clip-rule="evenodd" d="M212,147.452c0-4.867,0-9.4,0-14.06c2.144-0.121,4.208-0.165,6.29,0.104
			c3.801,0.494,6.011,4.014,5.642,7.581c-0.409,3.961-2.999,6.276-6.996,6.369C215.34,147.483,213.744,147.452,212,147.452z
			 M214.347,135.482c0,1.835-0.007,3.438,0.004,5.039c0.01,1.573,0.041,3.146,0.063,4.746c2.661,0.161,5.104,0.312,6.522-2.201
			c1.037-1.836,0.961-3.785-0.148-5.579C219.312,135.104,216.921,135.433,214.347,135.482z"/>
		<path fill-rule="evenodd" clip-rule="evenodd" d="M211.205,166.872c0-4.804,0-9.34,0-14.07c2.495-0.118,5-0.352,7.429,0.38
			c3.099,0.935,4.702,3.875,4.528,7.021c-0.224,4.025-2.906,6.553-6.936,6.662C214.624,166.908,213.02,166.872,211.205,166.872z
			 M213.628,164.685c2.727,0.183,5.253,0.296,6.608-2.369c0.981-1.93,0.874-3.982-0.47-5.741c-1.589-2.078-3.875-1.717-6.139-1.701
			C213.628,158.252,213.628,161.378,213.628,164.685z"/>
		<path fill-rule="evenodd" clip-rule="evenodd" d="M105.566,186.292c0-4.823,0-9.405,0-13.957c2.113,0,4.127-0.084,6.129,0.021
			c2.989,0.155,5.853,2.728,5.81,7.019c-0.04,4.072-2.822,6.791-6.908,6.91C108.99,186.33,107.382,186.292,105.566,186.292z
			 M108.143,174.331c-0.42,2.217-0.351,8.342,0.095,9.787c2.415,0.169,4.866,0.278,6.254-2.249c1.052-1.916,0.96-3.955-0.304-5.753
			C112.669,173.957,110.354,174.249,108.143,174.331z"/>
		<path fill-rule="evenodd" clip-rule="evenodd" d="M138.517,162.072c0-3.183,0-6.173,0-9.267c0.719,0,1.389,0,2.187,0
			c0,4.661,0,9.307,0,13.924c-0.918,0.303-1.194-0.395-1.594-0.835c-2.212-2.436-4.411-4.884-6.618-7.324
			c-0.271-0.298-0.563-0.575-1.039-1.059c0,3.206,0,6.104,0,9.181c-0.67,0-1.379,0-2.184,0c0-4.656,0-9.302,0-14.09
			c1.654,0.535,2.311,1.954,3.322,2.946c0.999,0.978,1.877,2.077,2.816,3.115C136.391,159.752,137.384,160.83,138.517,162.072z"/>
		<path fill-rule="evenodd" clip-rule="evenodd" d="M205.352,152.792c0.784,0,1.454,0,2.31,0c0.005,4.724,0.003,9.357,0,14.22
			c-1.839-0.628-2.434-2.09-3.452-3.062c-1.009-0.965-1.868-2.085-2.812-3.119c-0.972-1.066-1.966-2.113-3.109-3.339
			c0,3.249,0,6.169,0,9.257c-0.674,0.049-1.338,0.096-2.156,0.156c0-4.781,0-9.434,0-14.102c0.803-0.307,1.115,0.367,1.507,0.794
			c2.224,2.426,4.427,4.87,6.64,7.305c0.325,0.359,0.667,0.705,1.073,1.132C205.352,158.94,205.352,155.97,205.352,152.792z"/>
		<path fill-rule="evenodd" clip-rule="evenodd" d="M236.222,166.8c-0.927,0-1.543,0-2.28,0c0-4.727,0-9.383,0-14.38
			c0.61,0.451,1.086,0.7,1.428,1.071c2.231,2.42,4.432,4.866,6.644,7.301c0.371,0.408,0.754,0.805,1.171,1.249
			c0-3.101,0-6.096,0-9.236c0.668-0.04,1.338-0.08,1.991-0.119c0.391,1.572,0.471,11.655,0.133,14.033
			c-0.701,0.351-1.003-0.216-1.361-0.613c-2.254-2.493-4.499-4.994-6.75-7.49c-0.27-0.299-0.557-0.586-0.975-1.021
			c0,1.705,0,3.186,0,4.665C236.222,163.717,236.222,165.176,236.222,166.8z"/>
		<path fill-rule="evenodd" clip-rule="evenodd" d="M361.798,157.752c0,1.562,0,3.022,0,4.481c0,1.463,0,2.926,0,4.543
			c-0.782,0.055-1.446,0.101-2.262,0.157c0-4.784,0-9.438,0-14.103c0.808-0.295,1.121,0.374,1.515,0.803
			c2.223,2.425,4.426,4.87,6.638,7.306c0.327,0.359,0.669,0.703,0.963,1.012c0-1.512,0-3.017,0-4.522c0-1.469,0-2.938,0-4.55
			c0.792,0,1.51,0,2.327,0c0,4.631,0,9.224,0,13.791c-0.752,0.477-1.066-0.098-1.42-0.488c-2.254-2.493-4.495-4.997-6.75-7.488
			C362.498,158.351,362.131,158.061,361.798,157.752z"/>
		<path fill-rule="evenodd" clip-rule="evenodd" d="M168.646,171.947c1.618,0.726,2.344,2.064,3.351,3.078
			c0.986,0.991,1.873,2.08,2.812,3.117c0.983,1.087,1.979,2.164,3.056,3.341c0-3.123,0-6.093,0-9.211c0.681,0,1.396,0,2.31,0
			c0.005,4.66,0.003,9.295,0.001,14.153c-1.841-0.615-2.431-2.083-3.45-3.055c-1.01-0.963-1.868-2.083-2.812-3.118
			c-0.973-1.065-1.967-2.112-3.113-3.339c0,3.245,0,6.163,0,9.253c-0.671,0.049-1.335,0.098-2.154,0.157
			C168.646,181.547,168.646,176.895,168.646,171.947z"/>
		<path fill-rule="evenodd" clip-rule="evenodd" d="M324.761,205.776c-1.703-0.515-2.275-2.002-3.296-2.968
			c-1.012-0.96-1.869-2.082-2.812-3.117c-0.974-1.068-1.969-2.115-3.131-3.362c0,3.243,0,6.155,0,9.251
			c-0.65,0.052-1.312,0.104-1.957,0.154c-0.424-1.568-0.539-10.555-0.205-14.078c0.792-0.339,1.107,0.336,1.494,0.759
			c2.225,2.424,4.428,4.868,6.641,7.305c0.326,0.358,0.664,0.707,0.985,1.049c0-1.521,0-3.009,0-4.496c0-1.523,0-3.046,0-4.646
			c0.87,0,1.539,0,2.28,0C324.761,196.339,324.761,200.977,324.761,205.776z"/>
		<path fill-rule="evenodd" clip-rule="evenodd" d="M97.534,179.25c-0.017,4.328-2.901,7.349-7.198,7.257
			c-4.397-0.093-7.04-2.97-7.115-7.397c-0.069-4.145,3.15-7.155,7.367-7.143C94.297,171.979,97.688,174.854,97.534,179.25z
			 M90.494,184.259c2.895-0.015,4.849-2.141,4.779-5.2c-0.065-2.89-2.125-4.967-4.893-4.935c-2.798,0.032-4.739,2.096-4.742,5.043
			C85.635,182.288,87.527,184.273,90.494,184.259z"/>
		<path fill-rule="evenodd" clip-rule="evenodd" d="M229.1,179.159c0.021,4.428-2.978,7.537-7.312,7.353
			c-4.435-0.188-6.876-3.084-7.001-7.312c-0.122-4.132,3.084-7.217,7.279-7.236C225.933,171.946,229.233,174.932,229.1,179.159z
			 M217.206,179.215c0.014,3.115,1.92,5.075,4.904,5.042c2.81-0.031,4.711-2.055,4.732-5.036c0.021-2.972-2.096-5.154-4.94-5.096
			C219.111,174.184,217.194,176.262,217.206,179.215z"/>
		<path fill-rule="evenodd" clip-rule="evenodd" d="M259.788,161.311c-1.472,0-2.712,0-4.139,0
			c-0.042-0.701-0.076-1.264-0.115-1.925c0.512-0.046,0.85-0.101,1.187-0.103c1.668-0.009,3.337-0.004,4.973-0.004
			c0.789,3.392-0.973,6.485-4.143,7.453c-2.958,0.902-6.447-0.208-8.073-2.566c-1.8-2.613-1.744-6.347,0.131-8.851
			c1.766-2.356,5.147-3.328,8.104-2.377c1.859,0.6,3.095,1.786,3.813,3.808c-0.687,0.087-1.266,0.161-1.944,0.248
			c-1.694-2.206-3.839-2.952-6.437-1.802c-1.142,0.505-1.831,1.456-2.256,2.626c-1.013,2.801,0.268,5.977,2.773,6.818
			C256.491,165.587,258.853,164.402,259.788,161.311z"/>
		<path fill-rule="evenodd" clip-rule="evenodd" d="M356.63,159.83c-0.015,4.328-2.899,7.349-7.196,7.258
			c-4.397-0.093-7.039-2.972-7.115-7.398c-0.07-4.144,3.149-7.154,7.367-7.143C353.394,152.558,356.787,155.435,356.63,159.83z
			 M344.735,159.787c0.01,3.115,1.915,5.08,4.896,5.05c2.812-0.028,4.714-2.046,4.741-5.027c0.025-2.969-2.091-5.159-4.933-5.104
			C346.647,154.758,344.726,156.835,344.735,159.787z"/>
		<path fill-rule="evenodd" clip-rule="evenodd" d="M296.101,159.803c-0.005,4.333-2.868,7.355-7.17,7.285
			c-4.36-0.073-7.049-2.905-7.143-7.37c-0.088-4.14,3.129-7.201,7.339-7.163C293.236,152.591,296.104,155.572,296.101,159.803z
			 M284.206,159.694c-0.023,3.134,1.848,5.138,4.804,5.144c2.837,0.006,4.754-1.953,4.832-4.936c0.077-2.946-2.024-5.205-4.84-5.2
			C286.206,154.705,284.228,156.766,284.206,159.694z"/>
		<path fill-rule="evenodd" clip-rule="evenodd" d="M163.743,180.809c-1.438-0.067-2.743-0.128-4.143-0.193c0-0.637,0-1.161,0-1.654
			c0.192-0.097,0.313-0.213,0.437-0.213c1.885-0.012,3.77-0.008,5.637-0.008c0.934,3.462-1.248,6.986-4.725,7.536
			c-7.194,1.138-9.838-4.958-8.409-9.54c0.85-2.723,3.484-4.628,6.536-4.727c3.229-0.104,5.229,1.181,6.327,4.096
			c-0.187,0.076-0.369,0.202-0.561,0.218c-0.414,0.034-0.832,0.011-1.185,0.011c-2.676-2.396-4.831-2.84-6.964-1.478
			c-1.704,1.09-2.54,3.528-1.984,5.79c0.544,2.208,2.092,3.472,4.311,3.619C161.257,184.414,163.352,183.466,163.743,180.809z"/>
		<path fill-rule="evenodd" clip-rule="evenodd" d="M340.754,179.273c-0.013,4.33-2.89,7.35-7.188,7.267
			c-4.387-0.086-7.043-2.952-7.125-7.39c-0.076-4.142,3.144-7.188,7.358-7.143C337.904,172.051,340.766,175.039,340.754,179.273z
			 M333.546,184.285c2.875,0.167,4.87-1.91,4.94-5.025c0.065-2.883-1.971-5.049-4.716-5.105c-2.802-0.057-4.85,1.977-4.912,4.875
			C328.79,182.188,330.616,184.235,333.546,184.285z"/>
		<path fill-rule="evenodd" clip-rule="evenodd" d="M370.523,176.289c-0.874,0-1.481,0-2.06,0c-2.307-2.3-4.561-2.771-6.737-1.436
			c-1.798,1.104-2.644,3.615-2.009,5.957c0.633,2.33,2.303,3.536,4.828,3.488c2.401-0.045,3.498-0.932,4.12-3.461
			c-0.712-0.032-1.391-0.074-2.071-0.09c-0.62-0.016-1.241-0.004-1.977-0.004c-0.059-0.686-0.104-1.21-0.162-1.879
			c2.186,0,4.246,0,6.299,0c0.494,3.303-0.814,5.861-3.57,7.055c-2.849,1.232-6.548,0.391-8.44-1.92
			c-2.001-2.442-2.144-6.422-0.325-9.033c1.739-2.494,5.189-3.555,8.239-2.581C368.524,172.982,369.768,174.166,370.523,176.289z"/>
		<path fill-rule="evenodd" clip-rule="evenodd" d="M287.646,140.295c0.031,4.433-2.945,7.541-7.288,7.376
			c-4.386-0.166-6.968-3.009-7.005-7.285c-0.043-5.011,3.755-7.262,7.233-7.267C284.495,133.112,287.773,136.113,287.646,140.295z
			 M275.753,140.271c-0.024,3.135,1.846,5.14,4.8,5.146c2.84,0.007,4.756-1.948,4.837-4.933c0.079-2.945-2.023-5.206-4.839-5.204
			C277.757,135.284,275.774,137.345,275.753,140.271z"/>
		<path fill-rule="evenodd" clip-rule="evenodd" d="M201.928,172.266c2.079,0,4.174-0.142,6.239,0.037
			c2.403,0.209,3.748,1.403,4.182,3.459c0.436,2.062-0.318,3.695-2.059,4.874c-0.174,0.117-0.353,0.224-0.695,0.44
			c1.164,1.632,2.315,3.246,3.625,5.082c-1.002,0-1.725,0-2.573,0c-1.082-1.501-2.223-3.081-3.412-4.73c-0.953,0-1.902,0-3.042,0
			c0,1.58,0,3.091,0,4.74c-0.846,0.056-1.515,0.099-2.164,0.141C201.625,184.676,201.569,174.467,201.928,172.266z M204.225,179.484
			c0.772,0,1.451,0.006,2.13-0.001c0.487-0.006,0.982,0.023,1.459-0.052c1.537-0.242,2.353-1.222,2.318-2.718
			c-0.034-1.448-0.935-2.411-2.506-2.524c-1.094-0.08-2.197-0.016-3.401-0.016C204.225,176,204.225,177.631,204.225,179.484z"/>
		<path fill-rule="evenodd" clip-rule="evenodd" d="M251.338,200.515c1.244,1.741,2.371,3.317,3.648,5.104
			c-0.995,0.047-1.677,0.078-2.468,0.114c-1.181-1.618-2.366-3.244-3.58-4.907c-0.932,0-1.824,0-2.895,0
			c-0.381,1.528,0.007,3.146-0.266,4.782c-0.756,0-1.424,0-2.213,0c0-4.638,0-9.229,0-14.054c2.278,0.03,4.559-0.184,6.838,0.199
			c1.915,0.32,3.158,1.417,3.648,3.304c0.49,1.892-0.151,3.432-1.576,4.685C252.166,200.016,251.788,200.214,251.338,200.515z
			 M245.931,198.782c1.49,0,2.751,0.138,3.967-0.037c1.326-0.191,1.981-1.204,1.974-2.554c-0.008-1.298-0.745-2.354-2.04-2.509
			c-1.272-0.153-2.58-0.034-3.9-0.034C245.931,195.476,245.931,197.064,245.931,198.782z"/>
		<path fill-rule="evenodd" clip-rule="evenodd" d="M97.604,166.809c-0.947,0-1.567,0-2.181,0
			c-0.396-1.471-0.478-11.537-0.106-14.009c1.998,0,4.022-0.134,6.021,0.034c2.554,0.214,3.891,1.391,4.415,3.484
			c0.477,1.898-0.269,3.572-2.224,5.002c-0.153,0.111-0.295,0.24-0.491,0.402c1.153,1.618,2.28,3.199,3.597,5.047
			c-1.008,0.045-1.724,0.079-2.486,0.114c-1.176-1.631-2.315-3.211-3.512-4.87c-0.94,0-1.891,0-3.032,0
			C97.604,163.572,97.604,165.081,97.604,166.809z M97.589,160.012c1.356,0,2.541,0.11,3.696-0.027
			c1.518-0.181,2.308-1.264,2.239-2.768c-0.061-1.356-0.92-2.313-2.371-2.435c-1.156-0.097-2.325-0.019-3.564-0.019
			C97.589,156.581,97.589,158.166,97.589,160.012z"/>
		<path fill-rule="evenodd" clip-rule="evenodd" d="M317.802,142.588c0,1.58,0,3.094,0,4.742c-0.846,0.055-1.515,0.098-2.457,0.157
			c-0.009-2.401-0.021-4.687-0.023-6.97c-0.005-2.311-0.002-4.619-0.002-7.181c2.623-0.054,5.201-0.364,7.698,0.331
			c3.112,0.866,4.092,4.944,1.844,7.327c-0.425,0.451-0.972,0.786-1.619,1.299c1.127,1.575,2.28,3.188,3.593,5.025
			c-1.007,0-1.73,0-2.577,0c-1.085-1.503-2.225-3.084-3.413-4.731C319.89,142.588,318.94,142.588,317.802,142.588z M317.812,140.518
			c1.498,0,2.761,0.141,3.976-0.037c1.323-0.194,1.972-1.213,1.957-2.565c-0.014-1.296-0.757-2.344-2.056-2.496
			c-1.271-0.151-2.572-0.033-3.877-0.033C317.812,137.231,317.812,138.816,317.812,140.518z"/>
		<path fill-rule="evenodd" clip-rule="evenodd" d="M384.603,186.271c-0.81,0-1.429,0-2.263,0c0-2.037,0-4.028,0-6.131
			c-2.204,0-4.196,0-6.418,0c0,2.007,0,3.996,0,6.079c-0.892,0-1.557,0-2.337,0c0-4.645,0-9.232,0-13.965
			c0.666-0.04,1.336-0.078,2.204-0.13c0,1.885,0,3.674,0,5.615c2.175,0,4.168,0,6.409,0c0.049-1.754,0.099-3.591,0.151-5.503
			c0.812,0,1.48,0,2.253,0C384.603,176.897,384.603,181.481,384.603,186.271z"/>
		<path fill-rule="evenodd" clip-rule="evenodd" d="M129.007,199.549c0,2.038,0,3.977,0,6.054c-0.809,0.045-1.475,0.081-2.282,0.125
			c0-4.719,0-9.307,0-14.041c0.659,0,1.375,0,2.291,0c0,1.818,0,3.606,0,5.492c2.183,0,4.175,0,6.359,0c0-1.86,0-3.648,0-5.534
			c0.86,0,1.529,0,2.325,0c0,4.595,0,9.179,0,13.915c-0.702,0-1.415,0-2.269,0c0-1.997,0-3.937,0-6.011
			C133.302,199.549,131.311,199.549,129.007,199.549z"/>
		<path fill-rule="evenodd" clip-rule="evenodd" d="M372.907,133.364c0.879,0,1.547,0,2.406,0c0,1.862,0,3.652,0,5.546
			c2.182,0,4.175,0,6.36,0c0-1.832,0-3.621,0-5.531c0.854-0.041,1.525-0.071,2.335-0.11c0,4.692,0,9.275,0,14.022
			c-0.671,0-1.382,0-2.241,0c0-1.969,0-3.908,0-5.993c-2.126,0-4.119,0-6.255,0c-0.467,1.887,0.036,3.916-0.303,6.038
			c-0.675,0.046-1.341,0.09-2.279,0.152c-0.009-2.406-0.019-4.688-0.022-6.971C372.903,138.21,372.907,135.902,372.907,133.364z"/>
		<path fill-rule="evenodd" clip-rule="evenodd" d="M315.56,172.124c0,2.022,0,3.76,0,5.616c2.105,0,4.098,0,6.284,0
			c0-1.802,0-3.59,0-5.506c0.854-0.051,1.525-0.091,2.449-0.145c0.086,2.376,0.031,4.659,0.042,6.939
			c0.01,2.305,0.001,4.611,0.001,7.09c-0.784,0-1.496,0-2.354,0c0-1.936,0-3.874,0-6.063c-2.178-0.131-4.224-0.037-6.426-0.063
			c0,2.135,0,4.07,0,6.163c-0.805,0.061-1.47,0.109-2.114,0.158c-0.417-1.547-0.505-11.494-0.14-14.106
			c0.242-0.026,0.507-0.07,0.771-0.08C314.48,172.112,314.888,172.124,315.56,172.124z"/>
		<path fill-rule="evenodd" clip-rule="evenodd" d="M384.459,156.546c-0.362,0.05-0.564,0.096-0.768,0.103
			c-0.346,0.015-0.693,0.005-0.974,0.005c-2.175-2.718-4.916-2.765-6.447-0.174c-0.01,1.162,0.678,1.762,1.738,1.994
			c0.817,0.178,1.653,0.264,2.473,0.432c0.748,0.152,1.521,0.272,2.222,0.559c2.6,1.062,3.101,4.547,0.947,6.365
			c-2.038,1.722-6.138,1.817-8.249,0.169c-0.962-0.751-1.633-1.681-1.618-3.07c0.677,0,1.29,0,2.108,0
			c0.363,1.457,1.602,2.005,3.063,2.108c1.271,0.091,2.526-0.03,3.507-1.298c0-0.489,0-1.1,0-1.688
			c-0.792-1.168-2.012-1.206-3.174-1.408c-1.025-0.179-2.096-0.274-3.047-0.654c-2.658-1.064-3.058-4.525-0.79-6.304
			c1.854-1.455,5.59-1.519,7.521-0.126C383.847,154.188,384.113,154.706,384.459,156.546z"/>
		<path fill-rule="evenodd" clip-rule="evenodd" d="M139.449,183.133c0-0.52,0-1.13,0-1.691c-0.818-1.178-2.037-1.221-3.202-1.412
			c-0.96-0.157-1.941-0.27-2.857-0.574c-1.258-0.42-2.168-1.259-2.349-2.675c-0.19-1.49,0.186-2.771,1.414-3.724
			c1.863-1.445,5.612-1.501,7.52-0.096c0.95,0.701,1.434,1.654,1.52,2.973c-0.679,0.042-1.277,0.078-1.962,0.121
			c-0.717-1.714-2.086-2.128-3.755-1.991c-1.221,0.1-2.149,0.547-2.524,1.784c0.006,1.207,0.704,1.788,1.765,2.02
			c0.749,0.164,1.512,0.258,2.264,0.407c0.751,0.147,1.52,0.256,2.237,0.505c1.444,0.498,2.341,1.502,2.427,3.082
			c0.086,1.578-0.415,2.916-1.852,3.72c-2.288,1.281-4.664,1.356-7.025,0.239c-1.476-0.696-2.042-1.682-2.227-3.512
			c0.623,0,1.237,0,1.886,0C134.442,184.817,137.074,185.197,139.449,183.133z"/>
		<path fill-rule="evenodd" clip-rule="evenodd" d="M214.134,201.756c0.688,0,1.359,0,2.04,0c1.468,2.451,4.13,2.85,6.615,0.86
			c0-0.575,0-1.251,0-1.813c-0.939-1.141-2.151-1.179-3.32-1.366c-0.959-0.154-1.954-0.264-2.845-0.616
			c-2.678-1.06-3.128-4.486-0.88-6.295c1.906-1.535,5.76-1.563,7.688-0.067c0.883,0.686,1.263,1.611,1.448,2.853
			c-0.662,0.065-1.244,0.124-1.936,0.192c-0.921-2.101-2.672-2.256-4.566-1.905c-0.868,0.161-1.5,0.718-1.77,1.667
			c-0.029,1.245,0.739,1.825,1.889,2.049c0.753,0.146,1.515,0.24,2.267,0.394c0.749,0.152,1.523,0.262,2.227,0.542
			c2.697,1.075,3.169,4.693,0.874,6.486c-2.003,1.563-5.812,1.674-7.918,0.229C214.833,204.201,214.433,203.509,214.134,201.756z"/>
		<path fill-rule="evenodd" clip-rule="evenodd" d="M136.601,137.122c-0.787,0-1.396,0-1.966,0c-1.886-2.607-4.674-2.671-6.3-0.173
			c-0.05,1.272,0.706,1.868,1.856,2.099c0.751,0.151,1.515,0.245,2.266,0.397c0.749,0.15,1.525,0.256,2.229,0.532
			c2.709,1.066,3.205,4.669,0.922,6.48c-2.053,1.627-5.999,1.703-8.086,0.139c-0.985-0.739-1.646-1.676-1.728-3.111
			c0.73-0.038,1.396-0.074,2.014-0.107c1.569,2.56,4.176,2.964,6.692,0.998c0-0.571,0-1.245,0-1.828
			c-0.896-1.149-2.112-1.181-3.282-1.368c-0.958-0.154-1.942-0.281-2.851-0.602c-3.098-1.097-2.753-4.879-0.931-6.304
			c1.916-1.499,5.755-1.579,7.693-0.092C136.015,134.859,136.418,135.779,136.601,137.122z"/>
		<path fill-rule="evenodd" clip-rule="evenodd" d="M279.564,156.539c-0.78,0-1.39,0-1.964,0c-1.889-2.598-4.666-2.666-6.301-0.178
			c-0.055,1.272,0.697,1.872,1.848,2.106c0.751,0.151,1.515,0.243,2.267,0.396c0.749,0.151,1.524,0.255,2.229,0.531
			c2.713,1.063,3.216,4.663,0.936,6.478c-2.05,1.632-5.993,1.712-8.085,0.149c-0.986-0.738-1.651-1.673-1.734-3.113
			c0.726-0.04,1.39-0.077,2.008-0.112c1.58,2.558,4.172,2.965,6.695,1.005c0-0.57,0-1.244,0-1.834
			c-0.885-1.148-2.103-1.179-3.271-1.367c-0.959-0.154-1.942-0.279-2.851-0.6c-3.104-1.093-2.762-4.874-0.944-6.301
			c1.91-1.501,5.752-1.586,7.693-0.103C278.974,154.273,279.382,155.191,279.564,156.539z"/>
		<path fill-rule="evenodd" clip-rule="evenodd" d="M283.72,182.303c0.771,0,1.387,0,2.029,0c1.671,2.521,4.359,2.901,6.71,0.813
			c0-0.522,0-1.133,0-1.675c-0.843-1.184-2.062-1.224-3.227-1.414c-0.959-0.157-1.941-0.275-2.854-0.581
			c-1.261-0.422-2.159-1.27-2.333-2.687c-0.184-1.491,0.2-2.769,1.433-3.715c1.879-1.443,5.621-1.486,7.519-0.069
			c0.944,0.704,1.432,1.655,1.49,2.97c-0.677,0.035-1.28,0.066-1.964,0.101c-0.705-1.745-2.105-2.104-3.76-1.979
			c-1.223,0.094-2.145,0.559-2.507,1.793c0.021,1.214,0.728,1.786,1.788,2.012c0.748,0.159,1.512,0.255,2.264,0.403
			c0.751,0.148,1.52,0.259,2.237,0.509c1.354,0.472,2.252,1.403,2.39,2.89c0.145,1.562-0.263,2.957-1.678,3.803
			c-2.397,1.432-4.908,1.519-7.379,0.225C284.659,185.062,283.869,184.006,283.72,182.303z"/>
		<path fill-rule="evenodd" clip-rule="evenodd" d="M113.681,191.698c2.23,0,4.333-0.166,6.397,0.04
			c2.774,0.278,4.43,2.323,4.346,4.962c-0.083,2.65-1.882,4.532-4.646,4.755c-1.171,0.094-2.356,0.016-3.751,0.016
			c0,1.454,0,2.748,0,4.135c-0.887,0-1.553,0-2.346,0C113.681,200.979,113.681,196.388,113.681,191.698z M120.317,199.319
			c0.229-0.142,0.49-0.258,0.694-0.438c1.028-0.914,1.415-2.024,0.969-3.365c-0.423-1.271-1.293-1.899-2.875-1.914
			c-1.011-0.01-2.06-0.223-3.144,0.267c0,0.922,0,1.821,0,2.721c0,0.883,0,1.767,0,2.73
			C117.487,199.319,118.791,199.319,120.317,199.319z"/>
		<path fill-rule="evenodd" clip-rule="evenodd" d="M143.771,205.604c-0.887,0-1.553,0-2.347,0c0-4.624,0-9.214,0-14.029
			c2.397-0.002,4.822-0.271,7.224,0.26c1.937,0.43,3.3,2.143,3.504,4.233c0.206,2.115-0.938,4.241-2.809,4.938
			c-0.831,0.31-1.765,0.394-2.659,0.471c-0.894,0.077-1.798,0.017-2.913,0.017C143.771,202.922,143.771,204.213,143.771,205.604z
			 M148.002,199.354c0.321-0.196,0.523-0.278,0.673-0.417c1.184-1.095,1.514-2.231,1.019-3.529
			c-0.517-1.356-1.578-1.844-2.955-1.826c-0.953,0.011-1.907,0.002-2.935,0.002c-0.1,2.069-0.246,3.898,0.084,5.771
			C145.325,199.354,146.636,199.354,148.002,199.354z"/>
		<path fill-rule="evenodd" clip-rule="evenodd" d="M191.209,186.23c-0.981,0-1.601,0-2.215,0
			c-0.396-1.486-0.479-11.484-0.123-13.912c2.221,0,4.454-0.174,6.649,0.047c2.418,0.24,3.953,2.198,4.021,4.613
			c0.067,2.371-1.222,4.271-3.544,4.794c-1.478,0.335-3.038,0.299-4.789,0.45C191.209,183.438,191.209,184.725,191.209,186.23z
			 M191.194,174.168c-0.141,2.055-0.235,3.882,0.05,5.75c1.509,0,2.884,0,4.242,0c0.37-0.292,0.747-0.502,1.01-0.811
			c0.837-0.983,1.033-2.116,0.51-3.299c-0.499-1.13-1.446-1.635-2.666-1.641C193.315,174.163,192.29,174.168,191.194,174.168z"/>
		<path fill-rule="evenodd" clip-rule="evenodd" d="M292.959,143.233c0,1.5,0,2.686,0,4.045c-0.78,0-1.494,0-2.327,0
			c0-4.581,0-9.17,0-13.97c2.365,0.012,4.721-0.244,7.061,0.231c2.135,0.436,3.583,2.251,3.69,4.51
			c0.103,2.163-1.097,4.113-3.052,4.767c-0.779,0.261-1.634,0.34-2.462,0.402C294.978,143.285,294.077,143.233,292.959,143.233z
			 M297.4,141.064c0.347-0.316,0.829-0.629,1.143-1.063c1.272-1.766,0.412-4.25-1.667-4.585c-1.252-0.202-2.563-0.037-3.835-0.037
			c0,2.047,0,3.825,0,5.686C294.461,141.064,295.766,141.064,297.4,141.064z"/>
		<path fill-rule="evenodd" clip-rule="evenodd" d="M268.141,201.493c0,1.505,0,2.745,0,4.118c-0.804,0.04-1.472,0.073-2.282,0.112
			c0-4.716,0-9.307,0-14.15c2.431-0.004,4.923-0.282,7.384,0.302c1.874,0.445,3.218,2.303,3.342,4.368
			c0.126,2.063-0.983,4.067-2.786,4.747c-0.831,0.312-1.762,0.406-2.657,0.485C270.246,201.555,269.34,201.493,268.141,201.493z
			 M272.426,199.354c0.318-0.194,0.52-0.275,0.669-0.414c1.186-1.095,1.516-2.229,1.022-3.528c-0.515-1.357-1.575-1.847-2.953-1.829
			c-0.953,0.011-1.907,0.002-2.934,0.002c-0.109,2.066-0.246,3.896,0.076,5.77C269.745,199.354,271.056,199.354,272.426,199.354z"/>
		<path fill-rule="evenodd" clip-rule="evenodd" d="M72.737,166.816c-0.917,0-1.537,0-2.413,0c-0.007-2.332-0.017-4.616-0.02-6.9
			c-0.004-2.308-0.001-4.616-0.001-7.173c2.561-0.028,5.052-0.277,7.51,0.292c1.878,0.436,3.223,2.294,3.351,4.359
			c0.129,2.064-0.978,4.07-2.779,4.752c-0.83,0.314-1.761,0.409-2.655,0.489c-0.896,0.08-1.803,0.017-2.887,0.017
			c-0.038,0.78-0.084,1.451-0.103,2.123C72.724,165.394,72.737,166.013,72.737,166.816z M72.781,154.745
			c-0.048,2.084-0.247,3.917,0.128,5.777c1.438,0,2.751,0,4.028,0c0.224-0.12,0.429-0.192,0.586-0.321
			c1.272-1.038,1.645-2.104,1.223-3.454c-0.423-1.351-1.312-1.951-3.028-1.998C74.823,154.724,73.928,154.745,72.781,154.745z"/>
		<path fill-rule="evenodd" clip-rule="evenodd" d="M255.999,186.094c0-4.668,0-9.203,0-13.854c2.829,0,5.596,0,8.485,0
			c0,0.58,0,1.161,0,1.937c-2.025,0-3.956,0-5.998,0c0,1.277,0,2.365,0,3.721c0.937,0.01,1.889,0.022,2.841,0.026
			c0.898,0.005,1.797,0.002,2.808,0.002c0,0.723,0,1.305,0,2.047c-1.876,0-3.671,0-5.654,0c-0.042,0.813-0.102,1.482-0.107,2.152
			c-0.005,0.613,0.048,1.228,0.081,1.978c2.036,0,3.975,0,6.076,0c0.076,0.71,0.138,1.297,0.191,1.799
			C264.185,186.405,258.861,186.479,255.999,186.094z"/>
		<path fill-rule="evenodd" clip-rule="evenodd" d="M252.071,133.364c2.697,0,5.41,0,8.32,0c0.038,0.531,0.079,1.107,0.135,1.897
			c-2.076,0-4.003,0-6.085,0c0,1.33,0,2.464,0,3.748c1.819,0,3.618,0,5.579,0c0.058,0.713,0.104,1.295,0.169,2.118
			c-1.989,0-3.841,0-5.796,0c0,1.457,0,2.688,0,4.133c1.983,0,3.977,0,6.092,0c0,0.793,0,1.379,0,2.081c-2.799,0-5.57,0-8.346,0
			C251.769,145.847,251.708,135.666,252.071,133.364z"/>
		<path fill-rule="evenodd" clip-rule="evenodd" d="M184.182,141.153c0,1.458,0,2.688,0,4.132c2.022,0,4.017,0,6.118,0
			c0,0.797,0,1.382,0,2.069c-2.837,0-5.607,0-8.516,0c0-4.612,0-9.2,0-13.931c2.708,0,5.475,0,8.428,0
			c0.023,0.498,0.053,1.075,0.091,1.861c-2.077,0-4.005,0-6.073,0c0,1.277,0,2.366,0,3.593c1.729,0.507,3.624-0.013,5.622,0.328
			c0.032,0.545,0.065,1.128,0.113,1.947C187.976,141.153,186.122,141.153,184.182,141.153z"/>
		<path fill-rule="evenodd" clip-rule="evenodd" d="M91.924,152.787c0,0.626,0,1.156,0,1.889c-1.982,0-3.907,0-5.992,0
			c0,1.331,0,2.466,0,3.75c1.812,0,3.609,0,5.573,0c0.06,0.712,0.108,1.294,0.177,2.118c-1.989,0-3.841,0-5.798,0
			c0,1.457,0,2.688,0,4.132c1.976,0,3.969,0,6.1,0c0.037,0.789,0.065,1.376,0.099,2.084c-2.903,0-5.675,0-8.453,0
			c-0.372-1.475-0.44-11.604-0.075-13.973C86.25,152.787,88.962,152.787,91.924,152.787z"/>
		<path fill-rule="evenodd" clip-rule="evenodd" d="M128.694,174.205c-2.081,0-3.955,0-5.962,0c0,1.215,0,2.304,0,3.518
			c1.753,0.49,3.649-0.018,5.466,0.291c0.091,0.131,0.226,0.236,0.231,0.35c0.024,0.472,0.01,0.945,0.01,1.577
			c-1.918,0-3.712,0-5.675,0c0,1.431,0,2.707,0,4.2c1.969,0,3.963,0,6.055,0c0,0.797,0,1.384,0,2.062c-2.862,0-5.633,0-8.531,0
			c0-4.639,0-9.227,0-13.948c2.731,0,5.497,0,8.406,0C128.694,172.785,128.694,173.365,128.694,174.205z"/>
		<path fill-rule="evenodd" clip-rule="evenodd" d="M303.647,147.32c0-4.66,0-9.245,0-13.935c2.829,0,5.596,0,8.454,0
			c0,0.624,0,1.206,0,1.979c-2.053,0-3.985,0-6.015,0c0,1.277,0,2.365,0,3.674c1.88,0,3.734,0,5.681,0c0,0.748,0,1.281,0,1.932
			c-1.786,0.509-3.688-0.042-5.647,0.332c0,1.289,0,2.565,0,3.984c2.018,0,3.958,0,6.049,0c0.061,0.714,0.109,1.302,0.172,2.034
			C309.386,147.32,306.566,147.32,303.647,147.32z"/>
		<path fill-rule="evenodd" clip-rule="evenodd" d="M117.453,166.857c0-4.86,0-9.396,0-14.043c2.834,0,5.6,0,8.485,0
			c0,0.594,0,1.176,0,1.949c-2.036,0-3.969,0-6.008,0c0,1.277,0,2.366,0,3.674c1.849,0,3.701,0,5.693,0
			c0.036,0.742,0.062,1.277,0.092,1.902c-1.879,0.557-3.78,0.018-5.752,0.378c0,1.272,0,2.549,0,3.969c1.985,0,3.926,0,6.022,0
			c0.071,0.711,0.131,1.3,0.217,2.16C123.24,166.898,120.42,166.877,117.453,166.857z"/>
		<path fill-rule="evenodd" clip-rule="evenodd" d="M162.271,164.795c2.255,0,4.193,0,6.229,0c0,0.729,0,1.314,0,1.989
			c-2.871,0-5.641,0-8.536,0c0-4.646,0-9.233,0-13.952c2.738,0,5.505,0,8.411,0c0,0.538,0,1.115,0,1.896c-1.981,0-3.91,0-5.968,0
			c0,1.277,0,2.366,0,3.578c1.761,0.485,3.658-0.021,5.619,0.313c0,0.581,0,1.163,0,1.905c-1.832,0-3.627,0-5.675,0
			c-0.03,0.81-0.063,1.475-0.077,2.14C162.262,163.28,162.271,163.896,162.271,164.795z"/>
		<path fill-rule="evenodd" clip-rule="evenodd" d="M226.843,133.368c2.696,0,5.408,0,8.323,0c0.041,0.522,0.086,1.097,0.147,1.886
			c-2.077,0-4.004,0-6.089,0c0,1.33,0,2.465,0,3.75c1.809,0,3.605,0,5.569,0c0.062,0.71,0.112,1.293,0.183,2.117
			c-1.991,0-3.842,0-5.8,0c0,1.457,0,2.688,0,4.133c1.972,0,3.964,0,6.096,0c0.039,0.789,0.068,1.375,0.104,2.085
			c-2.903,0-5.676,0-8.453,0C226.55,145.882,226.478,135.77,226.843,133.368z"/>
		<path fill-rule="evenodd" clip-rule="evenodd" d="M54.481,165.071c0,0.896,0,1.433,0,2.085c-2.844,0-5.615,0-8.394,0
			c-0.374-1.452-0.447-11.555-0.083-13.967c2.753,0,5.519,0,8.373,0c0,0.619,0,1.148,0,1.882c-1.977,0-3.902,0-5.989,0
			c0,1.331,0,2.466,0,3.749c1.808,0,3.604,0,5.569,0c0.062,0.712,0.111,1.293,0.184,2.118c-1.989,0-3.841,0-5.801,0
			c0,1.457,0,2.688,0,4.133C50.311,165.071,52.304,165.071,54.481,165.071z"/>
		<path fill-rule="evenodd" clip-rule="evenodd" d="M303.719,191.584c1.097-0.263,1.325,0.331,1.602,0.925
			c1.33,2.847,2.688,5.682,4.016,8.528c0.678,1.453,1.314,2.924,2.042,4.545c-0.853,0-1.575,0-2.442,0
			c-0.438-0.841-0.915-1.756-1.42-2.725c-2.108,0-4.193,0-6.405,0c-0.451,0.873-0.926,1.789-1.436,2.773c-0.749,0-1.499,0-2.535,0
			C299.379,200.85,301.549,196.216,303.719,191.584z M304.533,195.701c-0.146-0.012-0.293-0.023-0.438-0.035
			c-0.703,1.621-1.408,3.241-2.151,4.956c1.629,0,3.056,0,4.726,0C305.896,198.843,305.215,197.271,304.533,195.701z"/>
		<path fill-rule="evenodd" clip-rule="evenodd" d="M156.744,147.371c-0.895,0-1.581,0-2.48,0c-0.426-0.819-0.899-1.732-1.429-2.748
			c-2.098,0-4.244,0-6.441,0c-0.477,0.923-0.95,1.84-1.414,2.737c-0.845,0-1.596,0-2.538,0c2.259-4.807,4.445-9.465,6.736-14.341
			c0.499,0.305,1.056,0.441,1.212,0.771C152.518,138.253,154.589,142.741,156.744,147.371z M149.61,136.919
			c-0.914,2.11-1.616,3.731-2.355,5.438c1.632,0,3.055,0,4.721,0C151.2,140.575,150.518,139.006,149.61,136.919z"/>
		<path fill-rule="evenodd" clip-rule="evenodd" d="M210.985,205.611c-0.525-1.023-0.966-1.885-1.419-2.769
			c-2.152,0-4.238,0-6.395,0c-0.479,0.929-0.952,1.846-1.439,2.79c-0.798,0-1.549,0-2.538,0c2.252-4.804,4.431-9.45,6.566-14.004
			c0.785-0.303,1.199-0.05,1.478,0.549c2.059,4.429,4.122,8.854,6.254,13.434C212.566,205.611,211.823,205.611,210.985,205.611z
			 M203.98,200.618c1.655,0,3.08,0,4.669,0c-0.655-1.847-1.282-3.485-2.381-5.191C205.465,197.249,204.768,198.83,203.98,200.618z"
			/>
		<path fill-rule="evenodd" clip-rule="evenodd" d="M180.143,191.574c1.279-0.268,1.418,0.557,1.7,1.154
			c1.486,3.158,2.955,6.326,4.426,9.492c0.498,1.073,0.983,2.151,1.544,3.379c-0.881,0-1.612,0-2.451,0
			c-0.461-0.882-0.938-1.797-1.438-2.75c-2.128,0-4.214,0-6.394,0c-0.468,0.904-0.942,1.822-1.443,2.789c-0.769,0-1.521,0-2.536,0
			C175.801,200.837,177.978,196.196,180.143,191.574z M180.721,195.176c-0.912,2.107-1.614,3.731-2.354,5.438
			c1.631,0,3.055,0,4.72,0C182.31,198.83,181.627,197.26,180.721,195.176z"/>
		<path fill-rule="evenodd" clip-rule="evenodd" d="M352.152,172.223c0.821,0,1.431,0,2.182,0c0.062,0.484,0.167,0.942,0.169,1.402
			c0.018,2.515,0,5.029,0.011,7.545c0.01,2.227-0.786,3.999-2.972,4.799c-2.287,0.837-4.581,0.807-6.475-0.925
			c-0.675-0.616-1.347-1.62-1.387-2.476c-0.158-3.397-0.064-6.806-0.064-10.309c0.742,0,1.339,0,2.101,0
			c0.032,0.749,0.085,1.425,0.089,2.101c0.016,2.306-0.076,4.615,0.044,6.915c0.129,2.455,2.11,3.703,4.437,2.907
			c1.174-0.401,1.818-1.262,1.837-2.526c0.022-1.675,0.022-3.352,0.028-5.028C352.155,175.234,352.152,173.84,352.152,172.223z"/>
		<path fill-rule="evenodd" clip-rule="evenodd" d="M318.009,152.814c0.851,0,1.514,0,2.321,0c0,3.377,0.101,6.65-0.039,9.912
			c-0.08,1.886-1.219,3.23-3.049,3.869c-1.715,0.6-3.437,0.569-5.103-0.156c-1.518-0.66-2.58-1.857-2.644-3.494
			c-0.131-3.334-0.039-6.677-0.039-10.126c0.729,0,1.324,0,2.076,0c0.046,0.64,0.122,1.241,0.126,1.843
			c0.02,2.376-0.062,4.754,0.043,7.126c0.096,2.192,1.247,3.161,3.371,3.094c1.837-0.058,2.82-0.973,2.91-2.85
			c0.071-1.465,0.022-2.934,0.024-4.401C318.01,156.096,318.009,154.56,318.009,152.814z"/>
		<path fill-rule="evenodd" clip-rule="evenodd" d="M356.861,201.014c0.617,0,1.16,0,1.74,0c0.066,0.251,0.194,0.457,0.154,0.625
			c-0.34,1.449-1.279,2.465-2.505,3.213c-3.173,1.934-7.789,0.9-9.679-2.135c-2.184-3.509-1.249-8.095,2.077-10.195
			c3.498-2.208,8.178-1.035,9.927,2.498c0.118,0.238,0.136,0.528,0.234,0.94c-0.677,0.056-1.279,0.105-1.801,0.148
			c-2.733-2.952-5.716-3.362-7.85-1.164c-1.988,2.048-1.771,5.895,0.438,7.718C351.824,204.501,354.853,203.863,356.861,201.014z"/>
		<path fill-rule="evenodd" clip-rule="evenodd" d="M240.499,195.988c-0.707,0.043-1.31,0.081-1.833,0.113
			c-2.651-2.947-5.714-3.35-7.842-1.116c-1.974,2.071-1.723,5.911,0.504,7.714c2.225,1.804,5.216,1.151,7.236-1.657
			c0.529,0,1.128,0,1.776,0c0.048,0.27,0.154,0.482,0.105,0.65c-0.603,2.071-2.104,3.263-4.063,3.87
			c-2.928,0.907-6.49-0.326-8.044-2.687c-1.771-2.688-1.632-6.389,0.333-8.842c1.891-2.361,5.197-3.261,8.157-2.128
			C238.659,192.605,240.052,193.782,240.499,195.988z"/>
		<path fill-rule="evenodd" clip-rule="evenodd" d="M155.031,157.309c-2.514-2.972-5.587-3.396-7.743-1.234
			c-2.017,2.021-1.841,5.866,0.353,7.722c2.226,1.883,5.222,1.246,7.425-1.677c0.323,0,0.735-0.021,1.145,0.01
			c0.192,0.014,0.377,0.129,0.557,0.193c-0.344,2.852-2.789,4.665-6.178,4.623c-3.977-0.049-6.658-2.533-7.08-6.56
			c-0.383-3.631,2.053-6.936,5.693-7.673c3.326-0.675,7.233,1.274,7.632,4.395C156.247,157.173,155.661,157.238,155.031,157.309z"/>
		<path fill-rule="evenodd" clip-rule="evenodd" d="M199.955,191.638c-2.112,4.943-4.074,9.534-6.156,14.405
			c-0.549-0.453-1.032-0.657-1.186-1.007c-1.904-4.337-3.76-8.695-5.749-13.332c0.939-0.076,1.654-0.134,2.561-0.207
			c1.295,3.251,2.577,6.469,4,10.043c1.359-3.478,2.603-6.658,3.871-9.902C198.085,191.638,198.829,191.638,199.955,191.638z"/>
		<path fill-rule="evenodd" clip-rule="evenodd" d="M247.324,133.357c0.825,0,1.509,0,2.193,0
			c-0.052,1.52-4.704,12.612-5.981,14.228c-0.298-0.243-0.734-0.423-0.868-0.733c-1.878-4.356-3.715-8.73-5.557-13.103
			c-0.02-0.047,0.043-0.13,0.117-0.331c0.676,0,1.407,0,2.292,0c1.255,3.154,2.533,6.369,3.926,9.869
			C244.82,139.767,246.074,136.559,247.324,133.357z"/>
		<path fill-rule="evenodd" clip-rule="evenodd" d="M169.839,193.586c-1.094,0-1.857,0-2.804,0c-0.044-0.642-0.082-1.223-0.13-1.93
			c1.806,0,3.453,0,5.243,0c0.038,0.523,0.11,1.059,0.112,1.594c0.011,2.445,0.088,4.894-0.018,7.334
			c-0.176,4.055-3.406,6.238-7.29,5.025c-2.482-0.775-3.543-2.789-3.149-6.1c0.594,0,1.2,0,1.959,0
			c0.053,0.602,0.084,1.209,0.16,1.812c0.207,1.645,1.257,2.466,3.069,2.423c1.673-0.039,2.771-0.897,2.824-2.454
			C169.9,198.795,169.839,196.295,169.839,193.586z"/>
		<path fill-rule="evenodd" clip-rule="evenodd" d="M184.54,159.21c0,0.862,0,1.398,0,2.129c-1.761,0-3.479,0-5.417,0
			c0,1.888,0,3.6,0,5.418c-0.89,0-1.556,0-2.347,0c0-4.61,0-9.2,0-13.923c2.661,0,5.354,0,8.241,0c0.026,0.57,0.052,1.137,0.087,1.9
			c-2.038,0-3.901,0-5.896,0c0,1.548,0,2.915,0,4.476C180.876,159.21,182.592,159.21,184.54,159.21z"/>
		<path fill-rule="evenodd" clip-rule="evenodd" d="M258.494,193.604c-0.707-0.084-1.244-0.147-1.861-0.219c0-0.602,0-1.127,0-1.748
			c2.08,0,4.091,0,6.312,0c0.041,0.498,0.087,1.066,0.145,1.756c-0.744,0.077-1.34,0.139-1.983,0.205c0,3.395,0,6.653,0,10.032
			c0.669,0.088,1.266,0.165,1.967,0.257c0,0.582,0,1.101,0,1.725c-2.184,0-4.315,0-6.548,0c0-0.593,0-1.114,0-1.717
			c0.673-0.09,1.274-0.169,1.969-0.261C258.494,200.289,258.494,197.029,258.494,193.604z"/>
		<path fill-rule="evenodd" clip-rule="evenodd" d="M191.409,164.801c0.678,0.093,1.279,0.176,1.932,0.266c0,0.603,0,1.124,0,1.727
			c-2.185,0-4.265,0-6.496,0c-0.053-0.502-0.108-1.019-0.176-1.651c0.696-0.122,1.29-0.227,1.892-0.333
			c0.419-0.516,0.503-7.045,0.109-10.045c-0.509-0.061-1.047-0.124-1.72-0.204c-0.055-0.501-0.112-1.028-0.188-1.712
			c2.164,0,4.226,0,6.444,0c0.052,0.438,0.113,0.961,0.189,1.6c-0.675,0.121-1.266,0.229-1.987,0.359
			C191.409,158.038,191.409,161.295,191.409,164.801z"/>
		<path fill-rule="evenodd" clip-rule="evenodd" d="M119.366,145.354c0-3.39,0-6.648,0-9.977c-0.621-0.086-1.159-0.161-1.829-0.255
			c-0.05-0.498-0.103-1.025-0.17-1.703c2.164,0,4.229,0,6.448,0c0.046,0.461,0.1,0.983,0.164,1.623
			c-0.674,0.116-1.266,0.22-1.979,0.343c0,3.247,0,6.503,0,9.916c0.603,0.118,1.25,0.245,1.963,0.386
			c0.024,0.522,0.047,0.999,0.076,1.624c-2.188,0-4.321,0-6.613,0c-0.042-0.451-0.091-0.971-0.149-1.595
			C117.974,145.596,118.571,145.492,119.366,145.354z"/>
		<path fill-rule="evenodd" clip-rule="evenodd" d="M224.732,154.549c0-0.632,0-1.157,0-1.764c2.104,0,4.116,0,6.277,0
			c0.068,0.477,0.144,0.995,0.236,1.646c-0.677,0.122-1.266,0.229-2.106,0.381c-0.057,3.262-0.027,6.575-0.017,9.969
			c0.773,0.102,1.374,0.181,2.06,0.271c0,0.598,0,1.118,0,1.73c-2.171,0-4.251,0-6.493,0c-0.059-0.465-0.124-0.979-0.204-1.616
			c0.745-0.153,1.389-0.284,2.113-0.433c0-3.314,0-6.572,0-9.957C225.963,154.699,225.37,154.627,224.732,154.549z"/>
		<path fill-rule="evenodd" clip-rule="evenodd" d="M114.867,166.813c-2.367,0-4.445,0-6.674,0c-0.031-0.577-0.059-1.1-0.093-1.702
			c0.695-0.118,1.298-0.22,2.028-0.344c0-3.256,0-6.52,0-9.917c-0.514-0.099-1.104-0.212-1.829-0.353
			c-0.028-0.493-0.057-1.021-0.092-1.676c2.16,0,4.224,0,6.452,0c0.022,0.515,0.046,1.039,0.075,1.684
			c-0.668,0.094-1.262,0.178-1.952,0.274c0,3.311,0,6.567,0,9.969c0.591,0.103,1.182,0.204,1.923,0.332
			C114.752,165.571,114.8,166.09,114.867,166.813z"/>
		<path fill-rule="evenodd" clip-rule="evenodd" d="M336.297,154.763c-0.7-0.082-1.238-0.145-1.857-0.217c0-0.6,0-1.125,0-1.747
			c2.133,0,4.196,0,6.356,0c0,0.594,0,1.118,0,1.767c-0.639,0.063-1.231,0.124-1.887,0.188c0,3.394,0,6.653,0,10.035
			c0.668,0.089,1.265,0.167,1.967,0.261c0,0.576,0,1.095,0,1.72c-2.178,0-4.31,0-6.544,0c0-0.588,0-1.109,0-1.713
			c0.667-0.089,1.269-0.169,1.965-0.262C336.297,161.453,336.297,158.193,336.297,154.763z"/>
		<path fill-rule="evenodd" clip-rule="evenodd" d="M352.458,135.025c0-0.609,0-1.083,0-1.65c2.088,0,4.1,0,6.32,0
			c0.042,0.499,0.088,1.067,0.145,1.758c-0.741,0.077-1.333,0.139-1.982,0.205c0,3.395,0,6.653,0,10.033
			c0.669,0.087,1.268,0.165,1.966,0.256c0,0.582,0,1.102,0,1.725c-2.183,0-4.315,0-6.547,0c0-0.593,0-1.114,0-1.717
			c0.672-0.089,1.272-0.168,1.968-0.261c0-3.344,0-6.604,0-9.949C353.679,135.286,353.036,135.149,352.458,135.025z"/>
		<path fill-rule="evenodd" clip-rule="evenodd" d="M148.256,184.203c0.776,0.104,1.376,0.183,2.056,0.272c0,0.6,0,1.119,0,1.729
			c-2.177,0-4.257,0-6.495,0c-0.058-0.474-0.12-0.989-0.198-1.623c0.746-0.151,1.392-0.282,2.111-0.43c0-3.318,0-6.577,0-9.963
			c-0.644-0.074-1.235-0.143-1.864-0.215c0-0.645,0-1.168,0-1.772c2.108,0,4.118,0,6.278,0c0.066,0.485,0.139,1.007,0.229,1.65
			c-0.678,0.123-1.267,0.23-2.113,0.383C148.226,177.5,148.234,180.812,148.256,184.203z"/>
		<path fill-rule="evenodd" clip-rule="evenodd" d="M299.021,166.756c0-4.734,0-9.262,0-13.939c0.707-0.048,1.376-0.092,2.139-0.143
			c0.466,1.325,0.187,2.647,0.235,3.937c0.049,1.323,0.011,2.651,0.011,3.978c0,1.313-0.001,2.627-0.001,4.12
			c2.002,0,3.857,0,5.855,0c0.048,0.755,0.085,1.339,0.131,2.048C304.57,166.756,301.887,166.756,299.021,166.756z"/>
		<path fill-rule="evenodd" clip-rule="evenodd" d="M263.707,147.406c0-4.785,0-9.36,0-14.03c0.757,0,1.425,0,2.262,0
			c0,3.905,0,7.787,0,11.917c2.067,0,3.978,0,5.973,0c0,0.786,0,1.323,0,1.879c-0.086,0.066-0.194,0.224-0.303,0.225
			C269.064,147.409,266.488,147.406,263.707,147.406z"/>
		<path fill-rule="evenodd" clip-rule="evenodd" d="M253.824,186.199c-2.932,0-5.561,0-8.294,0c0-4.671,0-9.249,0-13.972
			c0.668-0.042,1.338-0.084,2.262-0.142c0.167,4.014-0.022,7.953,0.111,12.059c1.975,0,3.83,0,5.829,0
			C253.767,184.901,253.792,185.483,253.824,186.199z"/>
		<path fill-rule="evenodd" clip-rule="evenodd" d="M328.804,166.816c-0.817,0-1.36,0-1.854,0c-0.104-0.088-0.201-0.133-0.202-0.18
			c-0.091-3.881-0.174-7.762-0.261-11.805c-1.277,0-2.51,0-3.904,0c-0.04-0.735-0.071-1.317-0.109-2.02c3.484,0,6.812,0,10.331,0
			c0.046,0.514,0.098,1.089,0.167,1.849c-1.375,0-2.602,0-4.071,0c-0.187,2.136-0.071,4.133-0.093,6.12
			C328.788,162.727,328.804,164.671,328.804,166.816z"/>
		<path fill-rule="evenodd" clip-rule="evenodd" d="M360.599,133.344c3.339,0,6.607,0,10.005,0c0,0.639,0,1.217,0,1.965
			c-1.29,0-2.52,0-3.977,0c0,4.091,0,8.024,0,12.047c-0.823,0-1.417,0-2.171,0c0-3.938,0-7.817,0-11.936c-1.429,0-2.71,0-4.021,0
			C360.221,134.531,360.011,133.887,360.599,133.344z"/>
		<path fill-rule="evenodd" clip-rule="evenodd" d="M82.157,172.245c0,0.573,0,1.103,0,1.875c-1.274,0-2.556,0-3.983,0
			c0,4.12,0,8.002,0,12.026c-0.798,0-1.442,0-2.247,0c0-3.939,0-7.82,0-11.865c-1.375,0-2.606,0-4.009,0
			c-0.061-0.732-0.107-1.316-0.165-2.036C75.289,172.245,78.671,172.245,82.157,172.245z"/>
		<path fill-rule="evenodd" clip-rule="evenodd" d="M304.532,174.219c-1.379,0-2.61,0-3.968,0c0-0.743,0-1.322,0-2
			c3.41,0,6.737,0,10.238,0c0.033,0.563,0.066,1.141,0.111,1.896c-1.372,0-2.601,0-3.927,0c-0.398,2.137-0.152,4.145-0.196,6.134
			c-0.043,1.939-0.01,3.881-0.01,5.931c-0.75,0-1.345,0-2.193,0C304.51,182.243,304.603,178.307,304.532,174.219z"/>
		<path fill-rule="evenodd" clip-rule="evenodd" d="M277.447,191.625c3.571,0,6.897,0,10.354,0c0,0.617,0,1.196,0,1.943
			c-1.29,0-2.52,0-3.977,0c0,4.092,0,8.024,0,12.047c-0.824,0-1.418,0-2.172,0c0-3.938,0-7.818,0-11.938c-1.429,0-2.712,0-4.109,0
			C277.508,192.916,277.482,192.385,277.447,191.625z"/>
		<path fill-rule="evenodd" clip-rule="evenodd" d="M152.599,204.812c0.783-1.259,0.783-1.259,2.315-0.893
			c0.757,1.246-0.219,2.312-0.378,3.525c-0.386,0.102-0.706,0.185-1.236,0.323c0.058-0.558,0.102-0.988,0.151-1.482
			C153.176,205.809,152.875,205.29,152.599,204.812z"/>
		<path fill-rule="evenodd" clip-rule="evenodd" d="M290.68,207.532c-0.468,0.062-0.788,0.104-1.187,0.157
			c0.057-0.574,0.102-1.032,0.146-1.481c-0.299-0.475-0.583-0.927-0.798-1.269c0.049-1.153,0.584-1.383,2.211-1.062
			C291.892,205.112,290.933,206.196,290.68,207.532z"/>
	</g>
</g>
<g id="awnxpf.tif_3_">
	<g>
		<path fill-rule="evenodd" clip-rule="evenodd" d="M426.79,372.803c1.493,0,2.548,0,3.921,0c1.493,4.779,2.985,9.551,4.674,14.954
			c1.881-5.225,3.529-9.81,5.199-14.45c0.503-0.055,0.914-0.101,1.585-0.174c1.667,4.626,3.335,9.255,5.14,14.27
			c1.325-2.473,1.613-4.982,2.36-7.329c0.749-2.348,1.537-4.682,2.38-7.245c1.178-0.055,2.316-0.105,3.887-0.175
			c-2.273,7.521-4.843,14.626-7.338,21.849c-0.616,0.031-1.127,0.059-1.861,0.096c-1.737-4.51-3.458-8.977-5.33-13.834
			c-1.838,4.815-3.518,9.221-5.223,13.686c-0.597,0.065-1.115,0.126-1.979,0.226C431.582,387.56,429.368,380.309,426.79,372.803z"/>
		<path fill-rule="evenodd" clip-rule="evenodd" d="M477.81,372.772c2.961,0,5.974-0.216,8.945,0.047
			c5.129,0.452,6.773,2.8,6.044,8.271c-0.513,0.633-1.12,1.384-1.765,2.181c2.307,1.248,3.444,3.179,3.101,5.832
			c-0.4,3.095-2.602,5.217-5.914,5.376c-3.433,0.166-6.879,0.038-10.286,0.038C477.346,392.025,477.257,376.346,477.81,372.772z
			 M490.254,386.337c-2.827-2.298-5.854-1.181-8.817-1.28c0,2.19,0,4.162,0,6.347c3.104-0.472,6.257,1.002,8.817-1.565
			C490.254,388.615,490.254,387.475,490.254,386.337z M488.546,381.36c1.147-1.212,1.491-2.454,0.68-3.873
			c-0.725-1.265-1.923-1.624-3.27-1.643c-1.476-0.019-2.95-0.003-4.585-0.003c0,2.176,0,4.045,0,6.086
			C483.903,382.151,486.314,382.508,488.546,381.36z"/>
		<path fill-rule="evenodd" clip-rule="evenodd" d="M506.135,394.553c0-7.51,0-14.505,0-21.694c3.308-0.187,6.493-0.255,9.705,0.159
			c5.865,0.763,9.275,6.193,8.705,11.698c-0.631,6.112-4.627,9.685-10.795,9.828C511.288,394.601,508.826,394.553,506.135,394.553z
			 M509.756,376.083c0,2.831-0.011,5.304,0.006,7.775c0.015,2.428,0.062,4.855,0.098,7.323c4.106,0.249,7.877,0.48,10.064-3.396
			c1.601-2.833,1.482-5.841-0.229-8.608C517.416,375.498,513.728,376.006,509.756,376.083z"/>
		<path fill-rule="evenodd" clip-rule="evenodd" d="M622.858,383.509c0.048,6.84-4.545,11.636-11.246,11.382
			c-6.767-0.257-10.751-4.643-10.809-11.242c-0.066-7.731,5.794-11.205,11.161-11.212
			C617.997,372.426,623.056,377.057,622.858,383.509z M604.508,383.473c-0.038,4.837,2.848,7.931,7.406,7.941
			c4.382,0.01,7.338-3.006,7.464-7.611c0.122-4.545-3.122-8.033-7.467-8.03C607.6,375.777,604.541,378.957,604.508,383.473z"/>
		<path fill-rule="evenodd" clip-rule="evenodd" d="M669.391,387.047c0,2.438,0,4.773,0,7.317c-1.305,0.085-2.337,0.15-3.791,0.243
			c-0.014-3.706-0.031-7.232-0.036-10.755c-0.008-3.565-0.003-7.128-0.003-11.08c4.047-0.083,8.025-0.562,11.879,0.511
			c4.802,1.336,6.313,7.629,2.844,11.306c-0.654,0.696-1.498,1.214-2.498,2.005c1.739,2.43,3.52,4.92,5.544,7.754
			c-1.554,0-2.67,0-3.978,0c-1.673-2.319-3.432-4.759-5.266-7.301C672.612,387.047,671.147,387.047,669.391,387.047z
			 M669.406,383.853c2.311,0,4.26,0.217,6.134-0.058c2.042-0.3,3.043-1.871,3.021-3.959c-0.021-1.999-1.168-3.616-3.172-3.852
			c-1.961-0.232-3.971-0.051-5.982-0.051C669.406,378.781,669.406,381.228,669.406,383.853z"/>
		<path fill-rule="evenodd" clip-rule="evenodd" d="M631.058,388.043c0,2.314,0,4.144,0,6.241c-1.204,0-2.306,0-3.591,0
			c0-7.068,0-14.149,0-21.556c3.648,0.018,7.284-0.377,10.895,0.357c3.294,0.672,5.528,3.473,5.694,6.959
			c0.158,3.338-1.692,6.347-4.709,7.354c-1.202,0.402-2.521,0.524-3.799,0.621C634.172,388.123,632.783,388.043,631.058,388.043z
			 M637.91,384.696c0.535-0.488,1.279-0.971,1.764-1.642c1.963-2.724,0.636-6.558-2.572-7.074c-1.932-0.312-3.955-0.058-5.918-0.058
			c0,3.159,0,5.903,0,8.773C633.375,384.696,635.389,384.696,637.91,384.696z"/>
		<path fill-rule="evenodd" clip-rule="evenodd" d="M567.965,372.814c4.163,0,8.35,0,12.84,0c0.059,0.82,0.122,1.709,0.208,2.928
			c-3.204,0-6.177,0-9.39,0c0,2.053,0,3.802,0,5.783c2.808,0,5.583,0,8.609,0c0.088,1.101,0.159,1.998,0.26,3.269
			c-3.069,0-5.926,0-8.943,0c0,2.249,0,4.147,0,6.377c3.061,0,6.137,0,9.4,0c0,1.224,0,2.128,0,3.212c-4.318,0-8.596,0-12.878,0
			C567.499,392.075,567.405,376.366,567.965,372.814z"/>
		<path fill-rule="evenodd" clip-rule="evenodd" d="M463.21,384.833c0,2.25,0,4.147,0,6.376c3.12,0,6.197,0,9.44,0
			c0,1.229,0,2.132,0,3.193c-4.378,0-8.652,0-13.141,0c0-7.117,0-14.196,0-21.496c4.179,0,8.448,0,13.005,0
			c0.036,0.769,0.081,1.659,0.14,2.872c-3.205,0-6.18,0-9.371,0c0,1.972,0,3.651,0,5.544c2.668,0.782,5.592-0.02,8.676,0.506
			c0.049,0.842,0.101,1.741,0.174,3.005C469.064,384.833,466.204,384.833,463.21,384.833z"/>
		<path fill-rule="evenodd" clip-rule="evenodd" d="M647.549,394.35c0-7.191,0-14.266,0-21.502c4.367,0,8.636,0,13.047,0
			c0,0.963,0,1.861,0,3.053c-3.168,0-6.15,0-9.281,0c0,1.971,0,3.65,0,5.669c2.9,0,5.762,0,8.766,0c0,1.154,0,1.978,0,2.98
			c-2.756,0.785-5.69-0.064-8.715,0.513c0,1.989,0,3.959,0,6.148c3.113,0,6.107,0,9.334,0c0.094,1.102,0.168,2.008,0.266,3.139
			C656.404,394.35,652.055,394.35,647.549,394.35z"/>
		<path fill-rule="evenodd" clip-rule="evenodd" d="M529.037,372.82c4.161,0,8.346,0,12.844,0c0.062,0.807,0.133,1.692,0.228,2.91
			c-3.205,0-6.179,0-9.396,0c0,2.053,0,3.803,0,5.786c2.791,0,5.563,0,8.594,0c0.095,1.096,0.173,1.995,0.281,3.267
			c-3.072,0-5.928,0-8.949,0c0,2.249,0,4.147,0,6.377c3.043,0,6.117,0,9.406,0c0.061,1.218,0.105,2.122,0.16,3.218
			c-4.48,0-8.759,0-13.044,0C528.586,392.13,528.474,376.525,529.037,372.82z"/>
		<path fill-rule="evenodd" clip-rule="evenodd" d="M560.641,372.804c1.273,0,2.328,0,3.385,0c-0.08,2.345-7.26,19.462-9.229,21.954
			c-0.46-0.375-1.133-0.652-1.34-1.132c-2.897-6.722-5.731-13.472-8.573-20.218c-0.031-0.072,0.065-0.2,0.18-0.511
			c1.043,0,2.172,0,3.537,0c1.937,4.867,3.909,9.827,6.058,15.229C556.777,382.693,558.713,377.743,560.641,372.804z"/>
		<path fill-rule="evenodd" clip-rule="evenodd" d="M585.92,394.482c0-7.385,0-14.443,0-21.65c1.168,0,2.199,0,3.49,0
			c0,6.026,0,12.017,0,18.389c3.19,0,6.138,0,9.217,0c0,1.213,0,2.042,0,2.899c-0.133,0.103-0.301,0.345-0.468,0.347
			C594.188,394.486,590.212,394.482,585.92,394.482z"/>
	</g>
</g>
<text transform="matrix(1 0 0 1 324.584 255)"><tspan x="0" y="0" font-family="'Intro'" font-size="20">Home</tspan><tspan x="3.8" y="36" font-family="'Intro'" font-size="20">Blog</tspan><tspan x="-57.539" y="72" font-family="'Intro'" font-size="20">Portfoli</tspan><tspan x="44.84" y="72" font-family="'Intro'" font-size="20">o</tspan><tspan x="-21.939" y="108" font-family="'Intro'" font-size="20">Resume</tspan></text>
<rect x="427" y="20" fill="#990000" width="974" height="312"/>
<text transform="matrix(1 0 0 1 211.8457 58.2266)"><tspan x="0" y="0" font-family="'Intro'" font-size="54.0591" letter-spacing="-2">S</tspan><tspan x="32.867" y="0" font-family="'Intro'" font-size="54.0591" letter-spacing="-1">C</tspan><tspan x="74.276" y="0" font-family="'Intro'" font-size="54.0591" letter-spacing="-4">O</tspan><tspan x="113.739" y="0" font-family="'Intro'" font-size="54.0591" letter-spacing="1">T</tspan><tspan x="145.418" y="0" font-family="'Intro'" font-size="54.0591">T</tspan><tspan x="-48.273" y="43.392" font-family="'Intro'" font-size="54.0591" letter-spacing="-1">S</tspan><tspan x="-14.324" y="43.392" font-family="'Intro'" font-size="54.0591" letter-spacing="-4">T</tspan><tspan x="11.354" y="43.392" font-family="'Intro'" font-size="54.0591" letter-spacing="-1">AMI</tspan><tspan x="115.469" y="43.392" font-family="'Intro'" font-size="54.0591" letter-spacing="-2">L</tspan><tspan x="143.363" y="43.392" font-family="'Intro'" font-size="54.0591">E</tspan></text>
</svg>
