<?xml version="1.0" encoding="utf-8"?>
<!-- Generator: Adobe Illustrator 17.0.2, SVG Export Plug-In . SVG Version: 6.00 Build 0)  -->
<!DOCTYPE svg PUBLIC "-//W3C//DTD SVG 1.1//EN" "http://www.w3.org/Graphics/SVG/1.1/DTD/svg11.dtd">
<svg version="1.1" id="Layer_1" xmlns="http://www.w3.org/2000/svg" xmlns:xlink="http://www.w3.org/1999/xlink" x="0px" y="0px"
	 width="74.501px" height="85.145px" viewBox="0 0 74.501 85.145" enable-background="new 0 0 74.501 85.145" xml:space="preserve">
<path fill="#FFFFFF" d="M47.894,26.607v21.286l10.643,37.251h-5.321L37.25,47.894L21.286,85.145h-5.322l10.643-37.251V26.607
	L0,15.964v-5.321l37.25,10.643l37.251-10.643v5.321L47.894,26.607z M37.25,0c2.153,0,4.021,0.792,5.607,2.375
	c1.583,1.586,2.375,3.454,2.375,5.606c0,2.156-0.793,4.024-2.375,5.607c-1.586,1.585-3.454,2.375-5.607,2.375
	c-2.156,0-4.024-0.79-5.606-2.375c-1.586-1.583-2.376-3.451-2.376-5.607c0-2.153,0.79-4.021,2.376-5.606
	C33.227,0.792,35.095,0,37.25,0z"/>
</svg>
