<?xml version="1.0" encoding="utf-8"?>
<!-- Generator: Adobe Illustrator 17.0.2, SVG Export Plug-In . SVG Version: 6.00 Build 0)  -->
<!DOCTYPE svg PUBLIC "-//W3C//DTD SVG 1.1//EN" "http://www.w3.org/Graphics/SVG/1.1/DTD/svg11.dtd">
<svg version="1.1" id="Layer_1" xmlns="http://www.w3.org/2000/svg" xmlns:xlink="http://www.w3.org/1999/xlink" x="0px" y="0px"
	 width="85.145px" height="72.981px" viewBox="0 0 85.145 72.981" enable-background="new 0 0 85.145 72.981" xml:space="preserve">
<path fill="#FFFFFF" d="M85.145,53.216V68.42c0,1.265-0.445,2.343-1.33,3.23c-0.888,0.886-1.966,1.331-3.231,1.331H65.379
	c-1.268,0-2.346-0.445-3.231-1.331c-0.888-0.888-1.33-1.966-1.33-3.23V53.216c0-1.266,0.442-2.344,1.33-3.231
	c0.885-0.885,1.963-1.33,3.231-1.33h4.562v-9.123H45.613v9.123h4.562c1.265,0,2.343,0.445,3.23,1.33
	c0.885,0.888,1.331,1.966,1.331,3.231V68.42c0,1.265-0.445,2.343-1.331,3.23c-0.888,0.886-1.966,1.331-3.23,1.331H34.97
	c-1.268,0-2.346-0.445-3.231-1.331c-0.888-0.888-1.331-1.966-1.331-3.23V53.216c0-1.266,0.442-2.344,1.331-3.231
	c0.885-0.885,1.963-1.33,3.231-1.33h4.561v-9.123H15.205v9.123h4.561c1.265,0,2.343,0.445,3.231,1.33
	c0.885,0.888,1.331,1.966,1.331,3.231V68.42c0,1.265-0.445,2.343-1.331,3.23c-0.888,0.886-1.966,1.331-3.231,1.331H4.562
	c-1.268,0-2.346-0.445-3.231-1.331C0.442,70.763,0,69.685,0,68.42V53.216c0-1.266,0.442-2.344,1.331-3.231
	c0.885-0.885,1.963-1.33,3.231-1.33h4.561v-9.123c0-1.645,0.6-3.07,1.806-4.276c1.203-1.202,2.628-1.805,4.276-1.805h24.327v-9.123
	H34.97c-1.268,0-2.346-0.442-3.231-1.33c-0.888-0.886-1.331-1.963-1.331-3.231V4.562c0-1.265,0.442-2.343,1.331-3.231
	C32.624,0.445,33.702,0,34.97,0h15.205c1.265,0,2.343,0.445,3.23,1.331c0.885,0.888,1.331,1.966,1.331,3.231v15.204
	c0,1.269-0.445,2.346-1.331,3.231c-0.888,0.888-1.966,1.33-3.23,1.33h-4.562v9.123H69.94c1.645,0,3.07,0.603,4.276,1.805
	c1.203,1.206,1.806,2.632,1.806,4.276v9.123h4.562c1.265,0,2.343,0.445,3.231,1.33C84.699,50.872,85.145,51.95,85.145,53.216z"/>
</svg>
