<?xml version="1.0" encoding="utf-8"?>
<!-- Generator: Adobe Illustrator 17.0.2, SVG Export Plug-In . SVG Version: 6.00 Build 0)  -->
<!DOCTYPE svg PUBLIC "-//W3C//DTD SVG 1.1//EN" "http://www.w3.org/Graphics/SVG/1.1/DTD/svg11.dtd">
<svg version="1.1" id="Layer_1" xmlns="http://www.w3.org/2000/svg" xmlns:xlink="http://www.w3.org/1999/xlink" x="0px" y="0px"
	 width="85.159px" height="85.159px" viewBox="0 0 85.159 85.159" enable-background="new 0 0 85.159 85.159" xml:space="preserve">
<path fill="#FFFFFF" d="M85.145,77.827c0.125,2.091-0.54,3.864-1.995,5.322c-1.458,1.455-3.231,2.12-5.322,1.996
	c-2.091-0.128-3.896-1.016-5.417-2.661L55.306,62.338c-1.901-2.025-2.789-4.054-2.661-6.082c-5.957,5.069-12.862,7.602-20.716,7.602
	c-8.87,0-16.41-3.104-22.617-9.313C3.103,48.339,0,40.799,0,31.929c0-8.867,3.103-16.407,9.312-22.617
	C15.519,3.106,23.059,0,31.929,0c8.867,0,16.407,3.106,22.617,9.312c6.207,6.209,9.312,13.75,9.312,22.617
	c0,7.857-2.536,14.762-7.602,20.716c2.025-0.125,4.054,0.76,6.082,2.661l20.146,17.105C84.129,73.931,85.018,75.737,85.145,77.827z
	 M53.215,31.929c0-5.827-2.09-10.833-6.271-15.015c-4.182-4.181-9.188-6.271-15.015-6.271c-5.829,0-10.833,2.09-15.014,6.271
	s-6.272,9.188-6.272,15.015c0,5.829,2.091,10.833,6.272,15.014s9.185,6.272,15.014,6.272c5.827,0,10.833-2.091,15.015-6.272
	C51.125,42.762,53.215,37.758,53.215,31.929z"/>
</svg>
