<?xml version="1.0" encoding="utf-8"?>
<!-- Generator: Adobe Illustrator 17.0.2, SVG Export Plug-In . SVG Version: 6.00 Build 0)  -->
<!DOCTYPE svg PUBLIC "-//W3C//DTD SVG 1.1//EN" "http://www.w3.org/Graphics/SVG/1.1/DTD/svg11.dtd">
<svg version="1.1" id="Layer_1" xmlns="http://www.w3.org/2000/svg" xmlns:xlink="http://www.w3.org/1999/xlink" x="0px" y="0px"
	 width="85.145px" height="68.04px" viewBox="0 0 85.145 68.04" enable-background="new 0 0 85.145 68.04" xml:space="preserve">
<path fill="#FFFFFF" d="M82.674,15.204c1.646,1.648,2.471,3.677,2.471,6.082v38.201c0,2.408-0.825,4.437-2.471,6.082
	c-1.648,1.645-3.676,2.471-6.082,2.471H8.552c-2.408,0-4.437-0.826-6.082-2.471C0.823,63.924,0,61.896,0,59.487V21.286
	c0-2.405,0.823-4.434,2.471-6.082c1.645-1.645,3.673-2.471,6.082-2.471h10.263c1.645,0,2.723-0.822,3.231-2.471l2.661-7.792
	C25.212,0.826,26.353,0,28.128,0h28.889c1.773,0,2.913,0.826,3.421,2.471l2.661,7.792c0.505,1.648,1.583,2.471,3.231,2.471h10.263
	C78.998,12.733,81.026,13.56,82.674,15.204z M63.858,38.296c0-5.892-2.09-10.928-6.271-15.109
	c-4.182-4.181-9.188-6.271-15.015-6.271c-5.829,0-10.833,2.091-15.014,6.271c-4.181,4.182-6.272,9.218-6.272,15.109
	s2.091,10.898,6.272,15.015c4.181,4.119,9.185,6.177,15.014,6.177c5.827,0,10.833-2.058,15.015-6.177
	C61.768,49.194,63.858,44.188,63.858,38.296z M55.306,38.296c0,3.486-1.235,6.495-3.706,9.028c-2.471,2.535-5.482,3.801-9.028,3.801
	c-3.549,0-6.557-1.266-9.027-3.801c-2.471-2.533-3.706-5.542-3.706-9.028c0-3.483,1.235-6.491,3.706-9.027
	c2.471-2.533,5.479-3.801,9.027-3.801c3.546,0,6.557,1.268,9.028,3.801C54.071,31.805,55.306,34.813,55.306,38.296z M76.592,24.232
	c0-0.823-0.285-1.521-0.855-2.091c-0.57-0.57-1.268-0.855-2.09-0.855c-0.826,0-1.521,0.285-2.091,0.855
	c-0.57,0.57-0.855,1.268-0.855,2.091c0,0.825,0.285,1.521,0.855,2.09c0.57,0.57,1.265,0.855,2.091,0.855
	c0.822,0,1.521-0.285,2.09-0.855C76.307,25.753,76.592,25.058,76.592,24.232z"/>
</svg>
