<?xml version="1.0" encoding="utf-8"?>
<!-- Generator: Adobe Illustrator 17.0.1, SVG Export Plug-In . SVG Version: 6.00 Build 0)  -->
<!DOCTYPE svg PUBLIC "-//W3C//DTD SVG 1.1//EN" "http://www.w3.org/Graphics/SVG/1.1/DTD/svg11.dtd">
<svg version="1.1" id="Layer_1" xmlns="http://www.w3.org/2000/svg" xmlns:xlink="http://www.w3.org/1999/xlink" x="0px" y="0px"
	 width="91.227px" height="85.145px" viewBox="0 0 91.227 85.145" enable-background="new 0 0 91.227 85.145" xml:space="preserve">
<path d="M28.128,42.572c-5.069,0.127-9.25,2.156-12.543,6.082H9.123c-2.536,0-4.689-0.632-6.462-1.9C0.885,45.488,0,43.588,0,41.052
	c0-11.148,1.963-16.725,5.892-16.725c0.125,0,0.79,0.318,1.996,0.951c1.203,0.635,2.756,1.3,4.656,1.995
	c1.901,0.698,3.801,1.045,5.702,1.045c2.153,0,4.244-0.314,6.272-0.95c-0.127,1.14-0.19,2.156-0.19,3.041
	C24.327,34.845,25.592,38.899,28.128,42.572z M26.798,3.611c2.405,2.408,3.611,5.259,3.611,8.552c0,3.296-1.206,6.147-3.611,8.553
	c-2.408,2.408-5.259,3.611-8.553,3.611c-3.296,0-6.147-1.203-8.552-3.611c-2.408-2.405-3.611-5.256-3.611-8.553
	c0-3.293,1.203-6.144,3.611-8.552C12.098,1.206,14.949,0,18.245,0C21.539,0,24.39,1.206,26.798,3.611z M79.063,72.791
	c0,3.801-1.14,6.809-3.421,9.027c-2.281,2.215-5.387,3.326-9.313,3.326H24.897c-3.929,0-7.032-1.111-9.313-3.326
	c-2.281-2.218-3.421-5.227-3.421-9.027c0-1.646,0.062-3.261,0.19-4.847c0.125-1.583,0.348-3.293,0.665-5.131
	c0.315-1.835,0.728-3.578,1.235-5.227c0.505-1.645,1.17-3.198,1.996-4.656c0.823-1.455,1.806-2.723,2.946-3.801
	c1.14-1.075,2.5-1.93,4.086-2.565c1.583-0.633,3.326-0.951,5.227-0.951c0.38,0,1.107,0.351,2.186,1.045
	c1.075,0.698,2.248,1.458,3.516,2.281c1.265,0.826,2.946,1.586,5.037,2.281c2.09,0.698,4.211,1.045,6.367,1.045
	c2.153,0,4.276-0.348,6.367-1.045c2.091-0.695,3.769-1.455,5.037-2.281c1.265-0.823,2.438-1.583,3.516-2.281
	c1.075-0.695,1.805-1.045,2.186-1.045c1.9,0,3.641,0.318,5.227,0.951c1.583,0.635,2.946,1.491,4.086,2.565
	c1.141,1.078,2.121,2.346,2.946,3.801c0.823,1.458,1.488,3.011,1.996,4.656c0.505,1.648,0.918,3.392,1.235,5.227
	c0.315,1.838,0.538,3.549,0.666,5.131C78.998,69.53,79.063,71.146,79.063,72.791z M58.537,17.485
	c3.545,3.549,5.321,7.857,5.321,12.924c0,5.069-1.776,9.378-5.321,12.924c-3.549,3.548-7.858,5.321-12.924,5.321
	c-5.069,0-9.378-1.773-12.924-5.321c-3.549-3.546-5.321-7.855-5.321-12.924c0-5.066,1.772-9.375,5.321-12.924
	c3.546-3.546,7.854-5.322,12.924-5.322C50.679,12.163,54.988,13.939,58.537,17.485z M81.534,3.611
	c2.406,2.408,3.611,5.259,3.611,8.552c0,3.296-1.205,6.147-3.611,8.553c-2.408,2.408-5.259,3.611-8.553,3.611
	c-3.296,0-6.147-1.203-8.552-3.611c-2.408-2.405-3.611-5.256-3.611-8.553c0-3.293,1.203-6.144,3.611-8.552
	C66.834,1.206,69.685,0,72.981,0C76.274,0,79.125,1.206,81.534,3.611z M91.227,41.052c0,2.536-0.888,4.437-2.66,5.702
	c-1.776,1.268-3.93,1.9-6.462,1.9h-6.462c-3.296-3.926-7.478-5.954-12.544-6.082c2.533-3.673,3.801-7.727,3.801-12.164
	c0-0.885-0.065-1.901-0.19-3.041c2.025,0.636,4.116,0.95,6.271,0.95c1.901,0,3.801-0.347,5.702-1.045
	c1.901-0.695,3.451-1.36,4.657-1.995c1.202-0.633,1.867-0.951,1.995-0.951C89.261,24.327,91.227,29.904,91.227,41.052z"/>
</svg>
