<?xml version="1.0" encoding="utf-8"?>
<!-- Generator: Adobe Illustrator 17.0.2, SVG Export Plug-In . SVG Version: 6.00 Build 0)  -->
<!DOCTYPE svg PUBLIC "-//W3C//DTD SVG 1.1//EN" "http://www.w3.org/Graphics/SVG/1.1/DTD/svg11.dtd">
<svg version="1.1" id="Layer_1" xmlns="http://www.w3.org/2000/svg" xmlns:xlink="http://www.w3.org/1999/xlink" x="0px" y="0px"
	 width="85.145px" height="69.273px" viewBox="0 0 85.145 69.273" enable-background="new 0 0 85.145 69.273" xml:space="preserve">
<path fill="#FFFFFF" d="M6.842,17.769c-0.255-0.633-0.475-1.36-0.665-2.186c-0.19-0.822-0.38-2.025-0.57-3.611
	c-0.19-1.582-0.127-3.388,0.19-5.416C6.111,4.53,6.714,2.439,7.602,0.283C7.727,0.159,7.95,0.094,8.268,0.094
	c0.314,0,1.045,0.032,2.186,0.095c1.14,0.065,2.343,0.285,3.611,0.665c1.265,0.38,2.976,1.111,5.132,2.186
	c2.153,1.078,4.371,2.441,6.652,4.087c4.053-1.141,9.627-1.711,16.725-1.711c7.095,0,12.668,0.57,16.725,1.711
	c2.28-1.646,4.496-3.009,6.652-4.087c2.153-1.074,3.896-1.806,5.227-2.186c1.33-0.38,2.5-0.632,3.516-0.76
	c1.012-0.125,1.772-0.125,2.28,0l0.57,0.189c0.885,2.156,1.488,4.247,1.806,6.272c0.314,2.028,0.38,3.834,0.19,5.416
	c-0.19,1.586-0.38,2.789-0.57,3.611c-0.19,0.825-0.413,1.553-0.665,2.186c4.562,5.069,6.842,11.023,6.842,17.865
	c0,3.929-0.35,7.445-1.045,10.548c-0.698,3.106-1.711,5.83-3.041,8.173c-1.331,2.346-2.979,4.371-4.941,6.082
	c-1.966,1.71-4.119,3.136-6.462,4.275c-2.346,1.141-5.007,2.059-7.982,2.756c-2.979,0.695-5.987,1.17-9.027,1.426
	c-3.041,0.252-6.462,0.38-10.263,0.38c-3.676,0-7.032-0.128-10.073-0.38c-3.041-0.256-6.052-0.73-9.028-1.426
	c-2.979-0.697-5.606-1.615-7.887-2.756c-2.281-1.14-4.404-2.565-6.367-4.275c-1.966-1.711-3.611-3.736-4.941-6.082
	c-1.331-2.343-2.346-5.066-3.041-8.173C0.348,43.079,0,39.563,0,35.634C0,28.792,2.281,22.838,6.842,17.769z M11.308,52.454
	c0.57,1.838,1.331,3.391,2.281,4.656c0.95,1.268,2.248,2.346,3.896,3.23c1.646,0.888,3.261,1.554,4.847,1.996
	c1.583,0.442,3.611,0.822,6.082,1.14c2.471,0.315,4.657,0.476,6.557,0.476s4.338,0,7.317,0c2.976,0,5.417,0,7.317,0
	c1.9,0,4.086-0.16,6.557-0.476c2.471-0.317,4.496-0.697,6.082-1.14c1.583-0.442,3.198-1.108,4.846-1.996
	c1.646-0.885,2.946-1.963,3.896-3.23c0.95-1.266,1.71-2.818,2.28-4.656c0.57-1.836,0.855-3.959,0.855-6.367
	c0-4.054-1.838-7.665-5.512-10.833c-1.016-1.013-2.251-1.773-3.706-2.281c-1.458-0.505-3.106-0.822-4.941-0.95
	c-1.838-0.124-3.582-0.124-5.227,0c-1.648,0.128-3.676,0.285-6.082,0.476c-2.409,0.19-4.499,0.285-6.272,0.285
	c-1.776,0-3.896-0.095-6.367-0.285s-4.532-0.348-6.177-0.476c-1.648-0.124-3.392-0.124-5.227,0c-1.838,0.128-3.486,0.445-4.941,0.95
	c-1.458,0.508-2.694,1.269-3.706,2.281c-3.677,3.296-5.512,6.907-5.512,10.833C10.453,48.495,10.738,50.618,11.308,52.454z
	 M26.608,37.345c1.52,0,2.785,0.793,3.801,2.375c1.013,1.586,1.521,3.454,1.521,5.607c0,2.155-0.508,4.023-1.521,5.606
	c-1.016,1.586-2.281,2.375-3.801,2.375c-1.521,0-2.789-0.789-3.801-2.375c-1.016-1.583-1.521-3.451-1.521-5.606
	c0-2.153,0.505-4.021,1.521-5.607C23.819,38.138,25.087,37.345,26.608,37.345z M58.537,37.345c1.521,0,2.785,0.793,3.801,2.375
	c1.013,1.586,1.521,3.454,1.521,5.607c0,2.155-0.508,4.023-1.521,5.606c-1.016,1.586-2.28,2.375-3.801,2.375
	s-2.789-0.789-3.801-2.375c-1.016-1.583-1.521-3.451-1.521-5.606c0-2.153,0.505-4.021,1.521-5.607
	C55.749,38.138,57.017,37.345,58.537,37.345z"/>
</svg>
