<?xml version="1.0" encoding="utf-8"?>
<!-- Generator: Adobe Illustrator 17.0.1, SVG Export Plug-In . SVG Version: 6.00 Build 0)  -->
<!DOCTYPE svg PUBLIC "-//W3C//DTD SVG 1.1//EN" "http://www.w3.org/Graphics/SVG/1.1/DTD/svg11.dtd">
<svg version="1.1" id="Layer_1" xmlns="http://www.w3.org/2000/svg" xmlns:xlink="http://www.w3.org/1999/xlink" x="0px" y="0px"
	 width="59.844px" height="95.75px" viewBox="0 0 59.844 95.75" enable-background="new 0 0 59.844 95.75" xml:space="preserve">
<path d="M57.172,2.671c1.78,1.783,2.672,3.884,2.672,6.305v77.797c0,2.421-0.892,4.522-2.672,6.305
	c-1.783,1.78-3.884,2.672-6.305,2.672H8.976c-2.424,0-4.525-0.892-6.305-2.672C0.888,91.295,0,89.194,0,86.773V8.976
	c0-2.421,0.888-4.521,2.671-6.305C4.452,0.891,6.552,0,8.976,0h41.891C53.288,0,55.389,0.891,57.172,2.671z M53.859,11.969H5.984
	v59.844h47.875V11.969z M17.953,7.48H41.89V4.488H17.953V7.48z M35.906,83.781c0-1.71-0.571-3.133-1.71-4.275
	c-1.142-1.139-2.565-1.71-4.275-1.71s-3.136,0.571-4.274,1.71c-1.142,1.142-1.71,2.565-1.71,4.275c0,1.71,0.568,3.133,1.71,4.275
	c1.138,1.138,2.564,1.709,4.274,1.709s3.133-0.571,4.275-1.709C35.335,86.914,35.906,85.491,35.906,83.781z"/>
</svg>
