<?xml version="1.0" encoding="utf-8"?>
<!-- Generator: Adobe Illustrator 17.0.2, SVG Export Plug-In . SVG Version: 6.00 Build 0)  -->
<!DOCTYPE svg PUBLIC "-//W3C//DTD SVG 1.1//EN" "http://www.w3.org/Graphics/SVG/1.1/DTD/svg11.dtd">
<svg version="1.1" id="Layer_1" xmlns="http://www.w3.org/2000/svg" xmlns:xlink="http://www.w3.org/1999/xlink" x="0px" y="0px"
	 width="85.145px" height="56.563px" viewBox="0 0 85.145 56.563" enable-background="new 0 0 85.145 56.563" xml:space="preserve">
<path fill="#FFFFFF" d="M18.436,21.403c-6.59,7.222-9.883,16.03-9.883,26.418c0,1.396,0.062,2.726,0.19,3.991
	c0.125,1.141-0.19,2.156-0.95,3.041c-0.76,0.888-1.743,1.396-2.946,1.521c-1.206,0.128-2.251-0.19-3.136-0.95
	c-0.888-0.76-1.396-1.71-1.521-2.851C0.062,51.052,0,49.469,0,47.821c0-12.796,4.116-23.629,12.354-32.5
	C20.588,6.454,30.661,2.017,42.572,2.017c3.926,0,7.727,0.57,11.403,1.711c-2.028,2.408-3.991,4.816-5.892,7.222
	c-1.9-0.252-3.739-0.38-5.512-0.38C33.07,10.57,25.022,14.181,18.436,21.403z M52.646,18.838C62.908,5.851,68.42-0.421,69.18,0.022
	c0.76,0.446-1.933,8.363-8.078,23.757C54.956,39.173,51.06,48.391,49.415,51.432c-1.396,2.408-3.202,3.866-5.417,4.371
	c-2.218,0.508-4.341,0.065-6.367-1.33c-2.156-1.141-3.549-2.69-4.181-4.656c-0.635-1.963-0.255-4.276,1.14-6.937
	C36.363,39.839,42.382,31.827,52.646,18.838z M85.145,47.821c0,1.648-0.065,3.231-0.19,4.751c-0.127,1.141-0.603,2.091-1.425,2.851
	c-0.826,0.76-1.743,1.14-2.756,1.14h-0.38c-1.268-0.125-2.281-0.632-3.041-1.521c-0.76-0.885-1.078-1.963-0.95-3.231
	c0.125-1.265,0.19-2.595,0.19-3.991c0-8.487-2.281-16.027-6.842-22.617c1.265-3.293,2.471-6.396,3.611-9.313
	C81.216,24.634,85.145,35.277,85.145,47.821z"/>
</svg>
