<?xml version="1.0" encoding="utf-8"?>
<!-- Generator: Adobe Illustrator 17.0.2, SVG Export Plug-In . SVG Version: 6.00 Build 0)  -->
<!DOCTYPE svg PUBLIC "-//W3C//DTD SVG 1.1//EN" "http://www.w3.org/Graphics/SVG/1.1/DTD/svg11.dtd">
<svg version="1.1" id="Layer_1" xmlns="http://www.w3.org/2000/svg" xmlns:xlink="http://www.w3.org/1999/xlink" x="0px" y="0px"
	 width="85.145px" height="51.504px" viewBox="0 0 85.145 51.504" enable-background="new 0 0 85.145 51.504" xml:space="preserve">
<path fill="#FFFFFF" d="M33.64,3.99c0,1.078-0.38,1.933-1.14,2.565L11.403,25.751L32.5,44.947c0.76,0.636,1.14,1.491,1.14,2.566
	c0,1.078-0.38,1.996-1.14,2.756c-1.776,1.648-3.549,1.648-5.322,0L0,25.751L27.178,1.234c1.773-1.646,3.546-1.646,5.322,0
	C33.26,1.994,33.64,2.915,33.64,3.99z M85.145,25.751L57.967,50.268c-1.776,1.648-3.549,1.648-5.321,0
	c-0.76-0.76-1.111-1.678-1.045-2.756c0.062-1.075,0.475-1.93,1.235-2.566l20.906-19.195L52.835,6.555
	c-0.76-0.632-1.173-1.488-1.235-2.565c-0.065-1.075,0.285-1.996,1.045-2.756c1.772-1.646,3.545-1.646,5.321,0L85.145,25.751z"/>
</svg>
