<?xml version="1.0" encoding="utf-8"?>
<!-- Generator: Adobe Illustrator 17.0.2, SVG Export Plug-In . SVG Version: 6.00 Build 0)  -->
<!DOCTYPE svg PUBLIC "-//W3C//DTD SVG 1.1//EN" "http://www.w3.org/Graphics/SVG/1.1/DTD/svg11.dtd">
<svg version="1.1" id="Layer_1" xmlns="http://www.w3.org/2000/svg" xmlns:xlink="http://www.w3.org/1999/xlink" x="0px" y="0px"
	 width="85.145px" height="85.145px" viewBox="0 0 85.145 85.145" enable-background="new 0 0 85.145 85.145" xml:space="preserve">
<path fill="#FFFFFF" d="M80.963,4.182c2.786,2.788,4.181,6.146,4.181,10.073v56.636c0,3.926-1.396,7.285-4.181,10.073
	c-2.789,2.785-6.147,4.181-10.073,4.181H14.254c-3.929,0-7.287-1.396-10.073-4.181C1.393,78.176,0,74.816,0,70.891V14.255
	C0,10.328,1.393,6.97,4.181,4.182C6.967,1.396,10.325,0,14.254,0h56.637C74.816,0,78.175,1.396,80.963,4.182z M31.929,21.286
	c0-1.521-0.508-2.785-1.521-3.801c-1.016-1.013-2.281-1.521-3.801-1.521c-1.521,0-2.789,0.508-3.801,1.521
	c-1.016,1.016-1.521,2.28-1.521,3.801s0.505,2.789,1.521,3.802c1.013,1.016,2.281,1.521,3.801,1.521c1.52,0,2.785-0.505,3.801-1.521
	C31.421,24.075,31.929,22.807,31.929,21.286z M31.929,31.93H21.286v37.251h10.643V31.93z M69.18,45.233
	c0-3.674-1.173-6.81-3.516-9.408c-2.346-2.595-5.164-3.896-8.458-3.896c-3.041,0-6.147,2.218-9.312,6.651V31.93H37.251v37.251
	h10.643V47.895c0-1.521,0.505-2.786,1.521-3.802c1.012-1.013,2.28-1.521,3.801-1.521s2.786,0.508,3.801,1.521
	c1.013,1.016,1.521,2.281,1.521,3.802v21.286H69.18V45.233z"/>
</svg>
