<?xml version="1.0" encoding="utf-8"?>
<!-- Generator: Adobe Illustrator 17.0.2, SVG Export Plug-In . SVG Version: 6.00 Build 0)  -->
<!DOCTYPE svg PUBLIC "-//W3C//DTD SVG 1.1//EN" "http://www.w3.org/Graphics/SVG/1.1/DTD/svg11.dtd">
<svg version="1.1" id="Layer_1" xmlns="http://www.w3.org/2000/svg" xmlns:xlink="http://www.w3.org/1999/xlink" x="0px" y="0px"
	 width="84.955px" height="69.181px" viewBox="0 0 84.955 69.181" enable-background="new 0 0 84.955 69.181" xml:space="preserve">
<path fill="#FFFFFF" d="M76.402,17.295c0,0.761,0,1.521,0,2.281c0,5.829-1.111,11.658-3.326,17.484
	c-2.218,5.83-5.321,11.151-9.313,15.965c-3.991,4.816-9.218,8.713-15.68,11.688c-6.462,2.976-13.559,4.467-21.286,4.467
	c-9.758,0-18.691-2.599-26.798-7.793c1.393,0.128,2.786,0.19,4.181,0.19c8.107,0,15.329-2.471,21.667-7.412
	c-3.801-0.125-7.192-1.298-10.168-3.517c-2.979-2.215-5.037-5.099-6.177-8.647c1.14,0.256,2.281,0.381,3.421,0.381
	c1.521,0,3.041-0.253,4.562-0.761c-4.057-0.76-7.412-2.756-10.073-5.986c-2.661-3.231-3.991-6.938-3.991-11.118v-0.19
	c2.406,1.396,5.066,2.091,7.982,2.091c-5.197-3.421-7.792-8.235-7.792-14.444c0-3.166,0.76-6.082,2.28-8.742
	c4.434,5.321,9.755,9.598,15.965,12.828c6.207,3.231,12.924,5.037,20.146,5.417c-0.38-1.266-0.57-2.596-0.57-3.991
	c0-4.813,1.71-8.933,5.131-12.354C49.985,1.711,54.101,0,58.917,0c5.066,0,9.313,1.838,12.734,5.512
	c3.926-0.76,7.665-2.153,11.214-4.182c-1.396,4.182-3.992,7.413-7.793,9.693c3.546-0.505,6.904-1.455,10.073-2.851
	C82.737,11.722,79.823,14.762,76.402,17.295z"/>
</svg>
